<svg viewBox="0 0 10000 10000" xmlns="http://www.w3.org/2000/svg">
<path d="M0,0 l10000,0 l0,10000 l-10000,0 z" fill="white"/>
<path d="M8602,217 l1086,0 l0,1219 l-1086,0 z" fill="#fe00ff" stroke="black" stroke-width="5"/>
<path d="M8043,7354 l239,0 l0,589 l-239,0 z" fill="#ff00ff" stroke="black" stroke-width="5"/>
<path d="M4067,0 l502,0 l0,1577 l-502,0 z" fill="#f400ff" stroke="black" stroke-width="5"/>
<path d="M857,3762 l2689,0 l0,233 l-2689,0 z" fill="#fe00ff" stroke="black" stroke-width="5"/>
<path d="M1193,3995 l75,0 l0,4704 l-75,0 z" fill="#ff00fe" stroke="black" stroke-width="5"/>
<path d="M7542,7255 l1098,0 l0,99 l-1098,0 z" fill="#d300ff" stroke="black" stroke-width="5"/>
<path d="M6604,259 l267,0 l0,6552 l-267,0 z" fill="#fb00ff" stroke="black" stroke-width="5"/>
<path d="M3886,6349 l592,0 l0,1230 l-592,0 z" fill="#f700ff" stroke="black" stroke-width="5"/>
<path d="M3839,3041 l1333,0 l0,139 l-1333,0 z" fill="#ff00ff" stroke="black" stroke-width="5"/>
<path d="M1606,9245 l1032,0 l0,734 l-1032,0 z" fill="#ff00fe" stroke="black" stroke-width="5"/>
<path d="M1268,3995 l91,0 l0,4276 l-91,0 z" fill="#fa00ff" stroke="black" stroke-width="5"/>
<path d="M1592,5611 l1190,0 l0,219 l-1190,0 z" fill="#ff00fe" stroke="black" stroke-width="5"/>
<path d="M8419,3772 l269,0 l0,890 l-269,0 z" fill="#ff00fe" stroke="black" stroke-width="5"/>
<path d="M0,3552 l857,0 l0,2502 l-857,0 z" fill="#fd00ff" stroke="black" stroke-width="5"/>
<path d="M7407,3772 l1012,0 l0,965 l-1012,0 z" fill="#fe00ff" stroke="black" stroke-width="5"/>
<path d="M8312,44 l106,0 l0,629 l-106,0 z" fill="#ff00ff" stroke="black" stroke-width="5"/>
<path d="M6017,259 l587,0 l0,2782 l-587,0 z" fill="#e900ff" stroke="black" stroke-width="5"/>
<path d="M2429,6967 l409,0 l0,1304 l-409,0 z" fill="#f200ff" stroke="black" stroke-width="5"/>
<path d="M350,1246 l1149,0 l0,285 l-1149,0 z" fill="#ff00fe" stroke="black" stroke-width="5"/>
<path d="M1268,8668 l5653,0 l0,23 l-5653,0 z" fill="#ff00ff" stroke="black" stroke-width="5"/>
<path d="M1359,4921 l2186,0 l0,427 l-2186,0 z" fill="#fe00ff" stroke="black" stroke-width="5"/>
<path d="M4478,7466 l1358,0 l0,113 l-1358,0 z" fill="#fe00ff" stroke="black" stroke-width="5"/>
<path d="M1359,5355 l2148,0 l0,239 l-2148,0 z" fill="#fe00ff" stroke="black" stroke-width="5"/>
<path d="M7716,498 l72,0 l0,1046 l-72,0 z" fill="#ff00fe" stroke="black" stroke-width="5"/>
<path d="M1359,5594 l233,0 l0,2677 l-233,0 z" fill="#d300ff" stroke="black" stroke-width="5"/>
<path d="M857,3995 l327,0 l0,2033 l-327,0 z" fill="#ff00fe" stroke="black" stroke-width="5"/>
<path d="M9300,6294 l170,0 l0,1985 l-170,0 z" fill="#ff00ff" stroke="black" stroke-width="5"/>
<path d="M6871,5270 l536,0 l0,1541 l-536,0 z" fill="#fa00ff" stroke="black" stroke-width="5"/>
<path d="M3546,2796 l1328,0 l0,107 l-1328,0 z" fill="#fe00ff" stroke="black" stroke-width="5"/>
<path d="M8312,1436 l1381,0 l0,544 l-1381,0 z" fill="#f800ff" stroke="black" stroke-width="5"/>
<path d="M2414,503 l732,0 l0,1304 l-732,0 z" fill="#fe00ff" stroke="black" stroke-width="5"/>
<path d="M2658,9245 l4365,0 l0,236 l-4365,0 z" fill="#fe00ff" stroke="black" stroke-width="5"/>
<path d="M4569,0 l149,0 l0,1807 l-149,0 z" fill="#fe00ff" stroke="black" stroke-width="5"/>
<path d="M9981,202 l19,0 l0,9218 l-19,0 z" fill="#fe00ff" stroke="black" stroke-width="5"/>
<path d="M1094,2044 l487,0 l0,1014 l-487,0 z" fill="#e700ff" stroke="black" stroke-width="5"/>
<path d="M911,2044 l183,0 l0,909 l-183,0 z" fill="#ff00fe" stroke="black" stroke-width="5"/>
<path d="M5368,968 l147,0 l0,770 l-147,0 z" fill="#fe00ff" stroke="black" stroke-width="5"/>
<path d="M0,0 l845,0 l0,1068 l-845,0 z" fill="#cc00ff" stroke="black" stroke-width="5"/>
<path d="M6871,0 l845,0 l0,738 l-845,0 z" fill="#f200ff" stroke="black" stroke-width="5"/>
<path d="M2115,3058 l685,0 l0,314 l-685,0 z" fill="#ff00fe" stroke="black" stroke-width="5"/>
<path d="M8717,8 l1271,0 l0,194 l-1271,0 z" fill="#ff00ff" stroke="black" stroke-width="5"/>
<path d="M0,6054 l959,0 l0,340 l-959,0 z" fill="#fe00ff" stroke="black" stroke-width="5"/>
<path d="M4718,10 l1405,0 l0,177 l-1405,0 z" fill="#ff00fe" stroke="black" stroke-width="5"/>
<path d="M1723,8864 l58,0 l0,380 l-58,0 z" fill="#ff00fe" stroke="black" stroke-width="5"/>
<path d="M3427,5830 l88,0 l0,2239 l-88,0 z" fill="#ff00ff" stroke="black" stroke-width="5"/>
<path d="M7707,8561 l1834,0 l0,413 l-1834,0 z" fill="#a000ff" stroke="black" stroke-width="5"/>
<path d="M1806,6371 l1621,0 l0,206 l-1621,0 z" fill="#de00ff" stroke="black" stroke-width="5"/>
<path d="M7407,5444 l1405,0 l0,326 l-1405,0 z" fill="#fc00ff" stroke="black" stroke-width="5"/>
<path d="M5172,3041 l1003,0 l0,391 l-1003,0 z" fill="#ff00ff" stroke="black" stroke-width="5"/>
<path d="M3886,7579 l3458,0 l0,201 l-3458,0 z" fill="#fd00ff" stroke="black" stroke-width="5"/>
<path d="M9541,5444 l105,0 l0,2659 l-105,0 z" fill="#ff00ff" stroke="black" stroke-width="5"/>
<path d="M5494,7780 l567,0 l0,888 l-567,0 z" fill="#fc00ff" stroke="black" stroke-width="5"/>
<path d="M3546,2903 l1969,0 l0,138 l-1969,0 z" fill="#e700ff" stroke="black" stroke-width="5"/>
<path d="M935,0 l273,0 l0,168 l-273,0 z" fill="#ff00fe" stroke="black" stroke-width="5"/>
<path d="M1825,4031 l1628,0 l0,304 l-1628,0 z" fill="#ff00fe" stroke="black" stroke-width="5"/>
<path d="M7707,9361 l1497,0 l0,59 l-1497,0 z" fill="#fe00ff" stroke="black" stroke-width="5"/>
<path d="M1359,4573 l1509,0 l0,348 l-1509,0 z" fill="#ff00fe" stroke="black" stroke-width="5"/>
<path d="M1807,2255 l432,0 l0,611 l-432,0 z" fill="#ff00ff" stroke="black" stroke-width="5"/>
<path d="M1571,1229 l351,0 l0,255 l-351,0 z" fill="#fe00ff" stroke="black" stroke-width="5"/>
<path d="M5368,190 l1140,0 l0,69 l-1140,0 z" fill="#fe00ff" stroke="black" stroke-width="5"/>
<path d="M5515,968 l502,0 l0,1617 l-502,0 z" fill="#f800ff" stroke="black" stroke-width="5"/>
<path d="M8640,7255 l526,0 l0,670 l-526,0 z" fill="#0600ff" stroke="black" stroke-width="5"/>
<path d="M1592,6967 l837,0 l0,1304 l-837,0 z" fill="#6c00ff" stroke="black" stroke-width="5"/>
<path d="M7066,2801 l2260,0 l0,585 l-2260,0 z" fill="#fe00ff" stroke="black" stroke-width="5"/>
<path d="M9326,2801 l367,0 l0,1936 l-367,0 z" fill="#fe00ff" stroke="black" stroke-width="5"/>
<path d="M3886,4810 l1810,0 l0,149 l-1810,0 z" fill="#ff00ff" stroke="black" stroke-width="5"/>
<path d="M6426,9494 l350,0 l0,89 l-350,0 z" fill="#ff00ff" stroke="black" stroke-width="5"/>
<path d="M845,173 l3222,0 l0,195 l-3222,0 z" fill="#8000ff" stroke="black" stroke-width="5"/>
<path d="M6061,7780 l1283,0 l0,888 l-1283,0 z" fill="#d600ff" stroke="black" stroke-width="5"/>
<path d="M6871,2364 l195,0 l0,2906 l-195,0 z" fill="#fe00ff" stroke="black" stroke-width="5"/>
<path d="M7407,3386 l1348,0 l0,386 l-1348,0 z" fill="#fe00ff" stroke="black" stroke-width="5"/>
<path d="M2886,1830 l660,0 l0,359 l-660,0 z" fill="#ff00fe" stroke="black" stroke-width="5"/>
<path d="M3546,4810 l340,0 l0,3403 l-340,0 z" fill="#fe00ff" stroke="black" stroke-width="5"/>
<path d="M5836,7171 l1152,0 l0,384 l-1152,0 z" fill="#fe00ff" stroke="black" stroke-width="5"/>
<path d="M4879,2797 l469,0 l0,106 l-469,0 z" fill="#ff00ff" stroke="black" stroke-width="5"/>
<path d="M8695,5770 l111,0 l0,674 l-111,0 z" fill="#ff00ff" stroke="black" stroke-width="5"/>
<path d="M7828,456 l479,0 l0,1224 l-479,0 z" fill="#fe00ff" stroke="black" stroke-width="5"/>
<path d="M7344,7579 l198,0 l0,2421 l-198,0 z" fill="#fe00ff" stroke="black" stroke-width="5"/>
<path d="M959,6109 l186,0 l0,2251 l-186,0 z" fill="#ff00fe" stroke="black" stroke-width="5"/>
<path d="M9166,5444 l133,0 l0,2658 l-133,0 z" fill="#fe00ff" stroke="black" stroke-width="5"/>
<path d="M3146,1577 l1423,0 l0,230 l-1423,0 z" fill="#fe00ff" stroke="black" stroke-width="5"/>
<path d="M1825,4441 l1663,0 l0,48 l-1663,0 z" fill="#ff00ff" stroke="black" stroke-width="5"/>
<path d="M8024,2364 l1669,0 l0,371 l-1669,0 z" fill="#f300ff" stroke="black" stroke-width="5"/>
<path d="M6871,1980 l2822,0 l0,147 l-2822,0 z" fill="#fc00ff" stroke="black" stroke-width="5"/>
<path d="M7542,5770 l1125,0 l0,591 l-1125,0 z" fill="#fb00ff" stroke="black" stroke-width="5"/>
<path d="M0,6394 l959,0 l0,2470 l-959,0 z" fill="#bd00ff" stroke="black" stroke-width="5"/>
<path d="M1208,0 l2859,0 l0,173 l-2859,0 z" fill="#b800ff" stroke="black" stroke-width="5"/>
<path d="M4735,187 l633,0 l0,1385 l-633,0 z" fill="#ff00ff" stroke="black" stroke-width="5"/>
<path d="M8812,5444 l354,0 l0,1811 l-354,0 z" fill="#fe00ff" stroke="black" stroke-width="5"/>
<path d="M8282,7354 l335,0 l0,518 l-335,0 z" fill="#ff00ff" stroke="black" stroke-width="5"/>
<path d="M3546,8213 l1948,0 l0,455 l-1948,0 z" fill="#c900ff" stroke="black" stroke-width="5"/>
<path d="M6871,1376 l845,0 l0,308 l-845,0 z" fill="#fc00ff" stroke="black" stroke-width="5"/>
<path d="M6871,738 l845,0 l0,638 l-845,0 z" fill="#f500ff" stroke="black" stroke-width="5"/>
<path d="M8282,7925 l839,0 l0,406 l-839,0 z" fill="#fe00ff" stroke="black" stroke-width="5"/>
<path d="M7542,7354 l304,0 l0,887 l-304,0 z" fill="#fe00ff" stroke="black" stroke-width="5"/>
<path d="M3546,1807 l1172,0 l0,989 l-1172,0 z" fill="#8200ff" stroke="black" stroke-width="5"/>
<path d="M1592,5830 l214,0 l0,1137 l-214,0 z" fill="#f400ff" stroke="black" stroke-width="5"/>
<path d="M1806,6577 l1621,0 l0,216 l-1621,0 z" fill="#2500ff" stroke="black" stroke-width="5"/>
<path d="M7707,8974 l1986,0 l0,387 l-1986,0 z" fill="#b800ff" stroke="black" stroke-width="5"/>
<path d="M5531,2585 l373,0 l0,437 l-373,0 z" fill="#fe00ff" stroke="black" stroke-width="5"/>
<path d="M4478,5955 l1358,0 l0,818 l-1358,0 z" fill="#c300ff" stroke="black" stroke-width="5"/>
<path d="M3546,3799 l2687,0 l0,276 l-2687,0 z" fill="#ff00fe" stroke="black" stroke-width="5"/>
<path d="M8755,3386 l571,0 l0,1337 l-571,0 z" fill="#fe00ff" stroke="black" stroke-width="5"/>
<path d="M350,1531 l1457,0 l0,513 l-1457,0 z" fill="#7c00ff" stroke="black" stroke-width="5"/>
<path d="M4718,1738 l797,0 l0,1058 l-797,0 z" fill="#fe00ff" stroke="black" stroke-width="5"/>
<path d="M3546,4075 l2873,0 l0,643 l-2873,0 z" fill="#fc00ff" stroke="black" stroke-width="5"/>
<path d="M845,368 l1300,0 l0,700 l-1300,0 z" fill="#b600ff" stroke="black" stroke-width="5"/>
<path d="M7828,0 l480,0 l0,452 l-480,0 z" fill="#ff00fe" stroke="black" stroke-width="5"/>
<path d="M1094,3562 l2022,0 l0,200 l-2022,0 z" fill="#ff00fe" stroke="black" stroke-width="5"/>
<path d="M1490,4181 l335,0 l0,333 l-335,0 z" fill="#ff00ff" stroke="black" stroke-width="5"/>
<path d="M6871,1684 l1441,0 l0,296 l-1441,0 z" fill="#fd00ff" stroke="black" stroke-width="5"/>
<path d="M6871,2127 l2822,0 l0,237 l-2822,0 z" fill="#f500ff" stroke="black" stroke-width="5"/>
<path d="M4478,6773 l1358,0 l0,693 l-1358,0 z" fill="#e800ff" stroke="black" stroke-width="5"/>
<path d="M0,8864 l1716,0 l0,372 l-1716,0 z" fill="#ff00fe" stroke="black" stroke-width="5"/>
<path d="M2145,503 l269,0 l0,1712 l-269,0 z" fill="#fe00ff" stroke="black" stroke-width="5"/>
<path d="M2239,2215 l704,0 l0,651 l-704,0 z" fill="#ff00fe" stroke="black" stroke-width="5"/>
<path d="M1268,8271 l2122,0 l0,393 l-2122,0 z" fill="#ff00fe" stroke="black" stroke-width="5"/>
<path d="M3886,7793 l1042,0 l0,420 l-1042,0 z" fill="#ff00ff" stroke="black" stroke-width="5"/>
<path d="M5368,259 l649,0 l0,709 l-649,0 z" fill="#fc00ff" stroke="black" stroke-width="5"/>
<path d="M7407,4737 l2286,0 l0,707 l-2286,0 z" fill="#c800ff" stroke="black" stroke-width="5"/>
<path d="M350,1068 l1171,0 l0,13 l-1171,0 z" fill="#ff00ff" stroke="black" stroke-width="5"/>
<path d="M7221,3386 l64,0 l0,1129 l-64,0 z" fill="#fe00ff" stroke="black" stroke-width="5"/>
<path d="M4492,4965 l591,0 l0,679 l-591,0 z" fill="#fe00ff" stroke="black" stroke-width="5"/>
<path d="M7542,6361 l1125,0 l0,894 l-1125,0 z" fill="#f700ff" stroke="black" stroke-width="5"/>
<path d="M6419,3576 l180,0 l0,916 l-180,0 z" fill="#ff00ff" stroke="black" stroke-width="5"/>
<path d="M0,2044 l856,0 l0,1265 l-856,0 z" fill="#ff00fe" stroke="black" stroke-width="5"/>
<path d="M7707,9420 l857,0 l0,405 l-857,0 z" fill="#fe00ff" stroke="black" stroke-width="5"/>
<path d="M7066,2735 l2627,0 l0,66 l-2627,0 z" fill="#fe00ff" stroke="black" stroke-width="5"/>
<path d="M1581,2044 l199,0 l0,710 l-199,0 z" fill="#fe00ff" stroke="black" stroke-width="5"/>
<path d="M8601,8422 l15,0 l0,139 l-15,0 z" fill="#ff00ff" stroke="black" stroke-width="5"/>
<path d="M2975,2893 l503,0 l0,366 l-503,0 z" fill="#ff00ff" stroke="black" stroke-width="5"/>
<path d="M0,1068 l350,0 l0,976 l-350,0 z" fill="#fc00ff" stroke="black" stroke-width="5"/>
<path d="M1806,5845 l1446,0 l0,526 l-1446,0 z" fill="#fe00ff" stroke="black" stroke-width="5"/>
<path d="M7066,2364 l958,0 l0,371 l-958,0 z" fill="#fd00ff" stroke="black" stroke-width="5"/>
<path d="M2145,368 l1922,0 l0,135 l-1922,0 z" fill="#ed00ff" stroke="black" stroke-width="5"/>
<path d="M3886,4965 l592,0 l0,1384 l-592,0 z" fill="#fc00ff" stroke="black" stroke-width="5"/>
<path d="M4616,4718 l127,0 l0,28 l-127,0 z" fill="#ff00ff" stroke="black" stroke-width="5"/>
<path d="M5915,6811 l1114,0 l0,359 l-1114,0 z" fill="#ff00fe" stroke="black" stroke-width="5"/>
<path d="M3146,1343 l847,0 l0,95 l-847,0 z" fill="#ff00ff" stroke="black" stroke-width="5"/>
<path d="M606,9245 l1000,0 l0,673 l-1000,0 z" fill="#ff00fe" stroke="black" stroke-width="5"/>
<path d="M7029,6811 l378,0 l0,768 l-378,0 z" fill="#0900ff" stroke="black" stroke-width="5"/>
<path d="M1807,1531 l331,0 l0,390 l-331,0 z" fill="#ff00fe" stroke="black" stroke-width="5"/>
<path d="M0,3311 l846,0 l0,241 l-846,0 z" fill="#fe00ff" stroke="black" stroke-width="5"/>
<path d="M7555,8347 l152,0 l0,886 l-152,0 z" fill="#ff00ff" stroke="black" stroke-width="5"/>
<path d="M5836,4969 l185,0 l0,1321 l-185,0 z" fill="#ff00ff" stroke="black" stroke-width="5"/>
<path d="M3461,9624 l679,0 l0,337 l-679,0 z" fill="#ff00ff" stroke="black" stroke-width="5"/>
<path d="M4478,5673 l598,0 l0,282 l-598,0 z" fill="#fe00ff" stroke="black" stroke-width="5"/>
<path d="M5083,4965 l753,0 l0,990 l-753,0 z" fill="#fe00ff" stroke="black" stroke-width="5"/>
<path d="M8616,8347 l655,0 l0,175 l-655,0 z" fill="#ff00ff" stroke="black" stroke-width="5"/>
<path d="M9693,202 l288,0 l0,9159 l-288,0 z" fill="#f200ff" stroke="black" stroke-width="5"/>
<path d="M7407,5770 l135,0 l0,1809 l-135,0 z" fill="#fd00ff" stroke="black" stroke-width="5"/>
<path d="M2838,6793 l589,0 l0,1478 l-589,0 z" fill="#ec00ff" stroke="black" stroke-width="5"/>
<path d="M1806,6793 l1032,0 l0,174 l-1032,0 z" fill="#fe00ff" stroke="black" stroke-width="5"/>
<path d="M8603,1405 l60,0 l0,60 l-60,0 z" fill="green"/>
<path d="M8633,1435 l512,-608.5" stroke="black" stroke-width="5"/>
<path d="M8251,7738 l60,0 l0,60 l-60,0 z" fill="green"/>
<path d="M8281,7768 l-118.5,-119.5" stroke="black" stroke-width="5"/>
<path d="M4512,6 l60,0 l0,60 l-60,0 z" fill="green"/>
<path d="M4542,36 l-224,752.5" stroke="black" stroke-width="5"/>
<path d="M918,3749 l60,0 l0,60 l-60,0 z" fill="green"/>
<path d="M948,3779 l1253.5,99.5" stroke="black" stroke-width="5"/>
<path d="M1237,7923 l60,0 l0,60 l-60,0 z" fill="green"/>
<path d="M1267,7953 l-36.5,-1606" stroke="black" stroke-width="5"/>
<path d="M8063,7244 l60,0 l0,60 l-60,0 z" fill="green"/>
<path d="M8093,7274 l-2,30.5" stroke="black" stroke-width="5"/>
<path d="M6840,5902 l60,0 l0,60 l-60,0 z" fill="green"/>
<path d="M6870,5932 l-132.5,-2397" stroke="black" stroke-width="5"/>
<path d="M3895,6525 l60,0 l0,60 l-60,0 z" fill="green"/>
<path d="M3925,6555 l257,409" stroke="black" stroke-width="5"/>
<path d="M5141,3011 l60,0 l0,60 l-60,0 z" fill="green"/>
<path d="M5171,3041 l-665.5,69.5" stroke="black" stroke-width="5"/>
<path d="M2499,9363 l60,0 l0,60 l-60,0 z" fill="green"/>
<path d="M2529,9393 l-407,219" stroke="black" stroke-width="5"/>
<path d="M1324,5606 l60,0 l0,60 l-60,0 z" fill="green"/>
<path d="M1354,5636 l-40.5,497" stroke="black" stroke-width="5"/>
<path d="M2231,5799 l60,0 l0,60 l-60,0 z" fill="green"/>
<path d="M2261,5829 l-74,-108.5" stroke="black" stroke-width="5"/>
<path d="M8389,4620 l60,0 l0,60 l-60,0 z" fill="green"/>
<path d="M8419,4650 l134.5,-433" stroke="black" stroke-width="5"/>
<path d="M74,5858 l60,0 l0,60 l-60,0 z" fill="green"/>
<path d="M104,5888 l324.5,-1085" stroke="black" stroke-width="5"/>
<path d="M7914,4706 l60,0 l0,60 l-60,0 z" fill="green"/>
<path d="M7944,4736 l-31,-481.5" stroke="black" stroke-width="5"/>
<path d="M8320,642 l60,0 l0,60 l-60,0 z" fill="green"/>
<path d="M8350,672 l15,-313.5" stroke="black" stroke-width="5"/>
<path d="M6002,2922 l60,0 l0,60 l-60,0 z" fill="green"/>
<path d="M6032,2952 l278.5,-1302" stroke="black" stroke-width="5"/>
<path d="M2414,8188 l60,0 l0,60 l-60,0 z" fill="green"/>
<path d="M2444,8218 l189.5,-599" stroke="black" stroke-width="5"/>
<path d="M1269,1500 l60,0 l0,60 l-60,0 z" fill="green"/>
<path d="M1299,1530 l-374.5,-141.5" stroke="black" stroke-width="5"/>
<path d="M2770,8638 l60,0 l0,60 l-60,0 z" fill="green"/>
<path d="M2800,8668 l1294.5,11.5" stroke="black" stroke-width="5"/>
<path d="M2365,5079 l60,0 l0,60 l-60,0 z" fill="green"/>
<path d="M2395,5109 l57,25.5" stroke="black" stroke-width="5"/>
<path d="M5451,7548 l60,0 l0,60 l-60,0 z" fill="green"/>
<path d="M5481,7578 l-324,-55.5" stroke="black" stroke-width="5"/>
<path d="M3202,5563 l60,0 l0,60 l-60,0 z" fill="green"/>
<path d="M3232,5593 l-799,-118.5" stroke="black" stroke-width="5"/>
<path d="M7686,1513 l60,0 l0,60 l-60,0 z" fill="green"/>
<path d="M7716,1543 l36,-522" stroke="black" stroke-width="5"/>
<path d="M1436,7928 l60,0 l0,60 l-60,0 z" fill="green"/>
<path d="M1466,7958 l9.5,-1025.5" stroke="black" stroke-width="5"/>
<path d="M827,4168 l60,0 l0,60 l-60,0 z" fill="green"/>
<path d="M857,4198 l163.5,813.5" stroke="black" stroke-width="5"/>
<path d="M9270,8248 l60,0 l0,60 l-60,0 z" fill="green"/>
<path d="M9300,8278 l85,-991.5" stroke="black" stroke-width="5"/>
<path d="M7278,6780 l60,0 l0,60 l-60,0 z" fill="green"/>
<path d="M7308,6810 l-169,-769.5" stroke="black" stroke-width="5"/>
<path d="M4713,2766 l60,0 l0,60 l-60,0 z" fill="green"/>
<path d="M4743,2796 l-533,53.5" stroke="black" stroke-width="5"/>
<path d="M8444,1949 l60,0 l0,60 l-60,0 z" fill="green"/>
<path d="M8474,1979 l528.5,-271" stroke="black" stroke-width="5"/>
<path d="M2402,504 l60,0 l0,60 l-60,0 z" fill="green"/>
<path d="M2432,534 l348,621" stroke="black" stroke-width="5"/>
<path d="M2682,9285 l60,0 l0,60 l-60,0 z" fill="green"/>
<path d="M2712,9315 l2128.5,48" stroke="black" stroke-width="5"/>
<path d="M4541,1449 l60,0 l0,60 l-60,0 z" fill="green"/>
<path d="M4571,1479 l72.5,-575.5" stroke="black" stroke-width="5"/>
<path d="M9951,6374 l60,0 l0,60 l-60,0 z" fill="green"/>
<path d="M9981,6404 l9.5,-1593" stroke="black" stroke-width="5"/>
<path d="M1100,2183 l60,0 l0,60 l-60,0 z" fill="green"/>
<path d="M1130,2213 l207.5,338" stroke="black" stroke-width="5"/>
<path d="M1063,2014 l60,0 l0,60 l-60,0 z" fill="green"/>
<path d="M1093,2044 l-90.5,454.5" stroke="black" stroke-width="5"/>
<path d="M5353,1180 l60,0 l0,60 l-60,0 z" fill="green"/>
<path d="M5383,1210 l58.5,143" stroke="black" stroke-width="5"/>
<path d="M370,125 l60,0 l0,60 l-60,0 z" fill="green"/>
<path d="M400,155 l22.5,379" stroke="black" stroke-width="5"/>
<path d="M7108,395 l60,0 l0,60 l-60,0 z" fill="green"/>
<path d="M7138,425 l155.5,-56" stroke="black" stroke-width="5"/>
<path d="M2769,3028 l60,0 l0,60 l-60,0 z" fill="green"/>
<path d="M2799,3058 l-341.5,157" stroke="black" stroke-width="5"/>
<path d="M9957,171 l60,0 l0,60 l-60,0 z" fill="green"/>
<path d="M9987,201 l-634.5,-96" stroke="black" stroke-width="5"/>
<path d="M848,6363 l60,0 l0,60 l-60,0 z" fill="green"/>
<path d="M878,6393 l-398.5,-169" stroke="black" stroke-width="5"/>
<path d="M5329,156 l60,0 l0,60 l-60,0 z" fill="green"/>
<path d="M5359,186 l61.5,-87.5" stroke="black" stroke-width="5"/>
<path d="M1693,8834 l60,0 l0,60 l-60,0 z" fill="green"/>
<path d="M1723,8864 l29,190" stroke="black" stroke-width="5"/>
<path d="M3397,6306 l60,0 l0,60 l-60,0 z" fill="green"/>
<path d="M3427,6336 l44,613.5" stroke="black" stroke-width="5"/>
<path d="M7861,8887 l60,0 l0,60 l-60,0 z" fill="green"/>
<path d="M7891,8917 l733,-149.5" stroke="black" stroke-width="5"/>
<path d="M2127,6422 l60,0 l0,60 l-60,0 z" fill="green"/>
<path d="M2157,6452 l459.5,22" stroke="black" stroke-width="5"/>
<path d="M8029,5414 l60,0 l0,60 l-60,0 z" fill="green"/>
<path d="M8059,5444 l50.5,163" stroke="black" stroke-width="5"/>
<path d="M5229,3285 l60,0 l0,60 l-60,0 z" fill="green"/>
<path d="M5259,3315 l414.5,-78.5" stroke="black" stroke-width="5"/>
<path d="M6343,7550 l60,0 l0,60 l-60,0 z" fill="green"/>
<path d="M6373,7580 l-758,99.5" stroke="black" stroke-width="5"/>
<path d="M9511,6150 l60,0 l0,60 l-60,0 z" fill="green"/>
<path d="M9541,6180 l52.5,593.5" stroke="black" stroke-width="5"/>
<path d="M6030,8294 l60,0 l0,60 l-60,0 z" fill="green"/>
<path d="M6060,8324 l-282.5,-100" stroke="black" stroke-width="5"/>
<path d="M4798,2936 l60,0 l0,60 l-60,0 z" fill="green"/>
<path d="M4828,2966 l-297.5,6" stroke="black" stroke-width="5"/>
<path d="M1177,78 l60,0 l0,60 l-60,0 z" fill="green"/>
<path d="M1207,108 l-135.5,-24" stroke="black" stroke-width="5"/>
<path d="M3201,4304 l60,0 l0,60 l-60,0 z" fill="green"/>
<path d="M3231,4334 l-592,-151" stroke="black" stroke-width="5"/>
<path d="M9049,9331 l60,0 l0,60 l-60,0 z" fill="green"/>
<path d="M9079,9361 l-623.5,29.5" stroke="black" stroke-width="5"/>
<path d="M2678,4890 l60,0 l0,60 l-60,0 z" fill="green"/>
<path d="M2708,4920 l-594.5,-173" stroke="black" stroke-width="5"/>
<path d="M1848,2835 l60,0 l0,60 l-60,0 z" fill="green"/>
<path d="M1878,2865 l145,-304.5" stroke="black" stroke-width="5"/>
<path d="M1541,1380 l60,0 l0,60 l-60,0 z" fill="green"/>
<path d="M1571,1410 l175.5,-53.5" stroke="black" stroke-width="5"/>
<path d="M6155,228 l60,0 l0,60 l-60,0 z" fill="green"/>
<path d="M6185,258 l-247,-33.5" stroke="black" stroke-width="5"/>
<path d="M5737,1580 l60,0 l0,60 l-60,0 z" fill="green"/>
<path d="M5767,1610 l-1,166.5" stroke="black" stroke-width="5"/>
<path d="M8616,7261 l60,0 l0,60 l-60,0 z" fill="green"/>
<path d="M8646,7291 l257,299" stroke="black" stroke-width="5"/>
<path d="M2077,8118 l60,0 l0,60 l-60,0 z" fill="green"/>
<path d="M2107,8148 l-96.5,-529" stroke="black" stroke-width="5"/>
<path d="M8797,2790 l60,0 l0,60 l-60,0 z" fill="green"/>
<path d="M8827,2820 l-631,273.5" stroke="black" stroke-width="5"/>
<path d="M9624,4259 l60,0 l0,60 l-60,0 z" fill="green"/>
<path d="M9654,4289 l-144.5,-520" stroke="black" stroke-width="5"/>
<path d="M4019,4843 l60,0 l0,60 l-60,0 z" fill="green"/>
<path d="M4049,4873 l742,11.5" stroke="black" stroke-width="5"/>
<path d="M6745,9464 l60,0 l0,60 l-60,0 z" fill="green"/>
<path d="M6775,9494 l-174,44.5" stroke="black" stroke-width="5"/>
<path d="M1540,189 l60,0 l0,60 l-60,0 z" fill="green"/>
<path d="M1570,219 l886,51.5" stroke="black" stroke-width="5"/>
<path d="M6676,8243 l60,0 l0,60 l-60,0 z" fill="green"/>
<path d="M6706,8273 l-3.5,-49" stroke="black" stroke-width="5"/>
<path d="M6956,5239 l60,0 l0,60 l-60,0 z" fill="green"/>
<path d="M6986,5269 l-17.5,-1452" stroke="black" stroke-width="5"/>
<path d="M8164,3356 l60,0 l0,60 l-60,0 z" fill="green"/>
<path d="M8194,3386 l-113,193" stroke="black" stroke-width="5"/>
<path d="M3515,2158 l60,0 l0,60 l-60,0 z" fill="green"/>
<path d="M3545,2188 l-329,-178.5" stroke="black" stroke-width="5"/>
<path d="M3855,5894 l60,0 l0,60 l-60,0 z" fill="green"/>
<path d="M3885,5924 l-169,587.5" stroke="black" stroke-width="5"/>
<path d="M6920,7204 l60,0 l0,60 l-60,0 z" fill="green"/>
<path d="M6950,7234 l-538,129" stroke="black" stroke-width="5"/>
<path d="M5030,2872 l60,0 l0,60 l-60,0 z" fill="green"/>
<path d="M5060,2902 l53.5,-52" stroke="black" stroke-width="5"/>
<path d="M8775,5807 l60,0 l0,60 l-60,0 z" fill="green"/>
<path d="M8805,5837 l-54.5,270" stroke="black" stroke-width="5"/>
<path d="M8150,508 l60,0 l0,60 l-60,0 z" fill="green"/>
<path d="M8180,538 l-112.5,530" stroke="black" stroke-width="5"/>
<path d="M7419,7613 l60,0 l0,60 l-60,0 z" fill="green"/>
<path d="M7449,7643 l-6,1146.5" stroke="black" stroke-width="5"/>
<path d="M929,8329 l60,0 l0,60 l-60,0 z" fill="green"/>
<path d="M959,8359 l93,-1124.5" stroke="black" stroke-width="5"/>
<path d="M9136,7284 l60,0 l0,60 l-60,0 z" fill="green"/>
<path d="M9166,7314 l66.5,-541" stroke="black" stroke-width="5"/>
<path d="M4051,1776 l60,0 l0,60 l-60,0 z" fill="green"/>
<path d="M4081,1806 l-223.5,-114" stroke="black" stroke-width="5"/>
<path d="M2506,4458 l60,0 l0,60 l-60,0 z" fill="green"/>
<path d="M2536,4488 l120.5,-23" stroke="black" stroke-width="5"/>
<path d="M8765,2433 l60,0 l0,60 l-60,0 z" fill="green"/>
<path d="M8795,2463 l63.5,86.5" stroke="black" stroke-width="5"/>
<path d="M8360,2043 l60,0 l0,60 l-60,0 z" fill="green"/>
<path d="M8390,2073 l-108,-19.5" stroke="black" stroke-width="5"/>
<path d="M7512,5918 l60,0 l0,60 l-60,0 z" fill="green"/>
<path d="M7542,5948 l562.5,117.5" stroke="black" stroke-width="5"/>
<path d="M127,7595 l60,0 l0,60 l-60,0 z" fill="green"/>
<path d="M157,7625 l322.5,4" stroke="black" stroke-width="5"/>
<path d="M1570,119 l60,0 l0,60 l-60,0 z" fill="green"/>
<path d="M1600,149 l1037.5,-62.5" stroke="black" stroke-width="5"/>
<path d="M5337,1366 l60,0 l0,60 l-60,0 z" fill="green"/>
<path d="M5367,1396 l-315.5,-516.5" stroke="black" stroke-width="5"/>
<path d="M9036,6302 l60,0 l0,60 l-60,0 z" fill="green"/>
<path d="M9066,6332 l-77,17.5" stroke="black" stroke-width="5"/>
<path d="M8363,7324 l60,0 l0,60 l-60,0 z" fill="green"/>
<path d="M8393,7354 l56.5,259" stroke="black" stroke-width="5"/>
<path d="M3577,8526 l60,0 l0,60 l-60,0 z" fill="green"/>
<path d="M3607,8556 l913,-115.5" stroke="black" stroke-width="5"/>
<path d="M7526,1417 l60,0 l0,60 l-60,0 z" fill="green"/>
<path d="M7556,1447 l-262.5,83" stroke="black" stroke-width="5"/>
<path d="M7053,1302 l60,0 l0,60 l-60,0 z" fill="green"/>
<path d="M7083,1332 l210.5,-275" stroke="black" stroke-width="5"/>
<path d="M8496,7895 l60,0 l0,60 l-60,0 z" fill="green"/>
<path d="M8526,7925 l175.5,203" stroke="black" stroke-width="5"/>
<path d="M7632,7973 l60,0 l0,60 l-60,0 z" fill="green"/>
<path d="M7662,8003 l32,-205.5" stroke="black" stroke-width="5"/>
<path d="M4105,1919 l60,0 l0,60 l-60,0 z" fill="green"/>
<path d="M4135,1949 l-3,352.5" stroke="black" stroke-width="5"/>
<path d="M1680,6824 l60,0 l0,60 l-60,0 z" fill="green"/>
<path d="M1710,6854 l-11,-455.5" stroke="black" stroke-width="5"/>
<path d="M1776,6633 l60,0 l0,60 l-60,0 z" fill="green"/>
<path d="M1806,6663 l810.5,22" stroke="black" stroke-width="5"/>
<path d="M8469,8967 l60,0 l0,60 l-60,0 z" fill="green"/>
<path d="M8499,8997 l201,170.5" stroke="black" stroke-width="5"/>
<path d="M5873,2555 l60,0 l0,60 l-60,0 z" fill="green"/>
<path d="M5903,2585 l-185.5,218.5" stroke="black" stroke-width="5"/>
<path d="M5628,6721 l60,0 l0,60 l-60,0 z" fill="green"/>
<path d="M5658,6751 l-501,-387" stroke="black" stroke-width="5"/>
<path d="M5392,4044 l60,0 l0,60 l-60,0 z" fill="green"/>
<path d="M5422,4074 l-532.5,-137" stroke="black" stroke-width="5"/>
<path d="M8854,3437 l60,0 l0,60 l-60,0 z" fill="green"/>
<path d="M8884,3467 l156.5,587.5" stroke="black" stroke-width="5"/>
<path d="M465,1505 l60,0 l0,60 l-60,0 z" fill="green"/>
<path d="M495,1535 l583.5,252.5" stroke="black" stroke-width="5"/>
<path d="M4688,1833 l60,0 l0,60 l-60,0 z" fill="green"/>
<path d="M4718,1863 l398.5,404" stroke="black" stroke-width="5"/>
<path d="M5429,4533 l60,0 l0,60 l-60,0 z" fill="green"/>
<path d="M5459,4563 l-476.5,-166.5" stroke="black" stroke-width="5"/>
<path d="M1447,421 l60,0 l0,60 l-60,0 z" fill="green"/>
<path d="M1477,451 l18,267" stroke="black" stroke-width="5"/>
<path d="M7991,27 l60,0 l0,60 l-60,0 z" fill="green"/>
<path d="M8021,57 l47,169" stroke="black" stroke-width="5"/>
<path d="M1423,3731 l60,0 l0,60 l-60,0 z" fill="green"/>
<path d="M1453,3761 l652,-99" stroke="black" stroke-width="5"/>
<path d="M1794,4483 l60,0 l0,60 l-60,0 z" fill="green"/>
<path d="M1824,4513 l-166.5,-165.5" stroke="black" stroke-width="5"/>
<path d="M8281,1905 l60,0 l0,60 l-60,0 z" fill="green"/>
<path d="M8311,1935 l-719.5,-103" stroke="black" stroke-width="5"/>
<path d="M8420,2301 l60,0 l0,60 l-60,0 z" fill="green"/>
<path d="M8450,2331 l-168,-85.5" stroke="black" stroke-width="5"/>
<path d="M5288,6874 l60,0 l0,60 l-60,0 z" fill="green"/>
<path d="M5318,6904 l-161,215.5" stroke="black" stroke-width="5"/>
<path d="M305,8947 l60,0 l0,60 l-60,0 z" fill="green"/>
<path d="M335,8977 l523,73" stroke="black" stroke-width="5"/>
<path d="M2115,473 l60,0 l0,60 l-60,0 z" fill="green"/>
<path d="M2145,503 l134.5,856" stroke="black" stroke-width="5"/>
<path d="M2309,2376 l60,0 l0,60 l-60,0 z" fill="green"/>
<path d="M2339,2406 l252,134.5" stroke="black" stroke-width="5"/>
<path d="M1845,8241 l60,0 l0,60 l-60,0 z" fill="green"/>
<path d="M1875,8271 l454,196.5" stroke="black" stroke-width="5"/>
<path d="M4364,8182 l60,0 l0,60 l-60,0 z" fill="green"/>
<path d="M4394,8212 l13,-209" stroke="black" stroke-width="5"/>
<path d="M5680,286 l60,0 l0,60 l-60,0 z" fill="green"/>
<path d="M5710,316 l-17.5,297.5" stroke="black" stroke-width="5"/>
<path d="M7959,4785 l60,0 l0,60 l-60,0 z" fill="green"/>
<path d="M7989,4815 l561,275.5" stroke="black" stroke-width="5"/>
<path d="M338,1038 l60,0 l0,60 l-60,0 z" fill="green"/>
<path d="M368,1068 l567.5,6.5" stroke="black" stroke-width="5"/>
<path d="M7254,4377 l60,0 l0,60 l-60,0 z" fill="green"/>
<path d="M7284,4407 l-31,-456.5" stroke="black" stroke-width="5"/>
<path d="M5052,5466 l60,0 l0,60 l-60,0 z" fill="green"/>
<path d="M5082,5496 l-294.5,-191.5" stroke="black" stroke-width="5"/>
<path d="M8120,7224 l60,0 l0,60 l-60,0 z" fill="green"/>
<path d="M8150,7254 l-45.5,-446" stroke="black" stroke-width="5"/>
<path d="M6533,4461 l60,0 l0,60 l-60,0 z" fill="green"/>
<path d="M6563,4491 l-54,-457" stroke="black" stroke-width="5"/>
<path d="M37,2834 l60,0 l0,60 l-60,0 z" fill="green"/>
<path d="M67,2864 l361,-187.5" stroke="black" stroke-width="5"/>
<path d="M8410,9390 l60,0 l0,60 l-60,0 z" fill="green"/>
<path d="M8440,9420 l-304.5,202.5" stroke="black" stroke-width="5"/>
<path d="M7856,2705 l60,0 l0,60 l-60,0 z" fill="green"/>
<path d="M7886,2735 l493.5,33" stroke="black" stroke-width="5"/>
<path d="M1551,2589 l60,0 l0,60 l-60,0 z" fill="green"/>
<path d="M1581,2619 l99.5,-220" stroke="black" stroke-width="5"/>
<path d="M8585,8530 l60,0 l0,60 l-60,0 z" fill="green"/>
<path d="M8615,8560 l-6.5,-68.5" stroke="black" stroke-width="5"/>
<path d="M3091,3228 l60,0 l0,60 l-60,0 z" fill="green"/>
<path d="M3121,3258 l105.5,-182" stroke="black" stroke-width="5"/>
<path d="M103,1314 l60,0 l0,60 l-60,0 z" fill="green"/>
<path d="M133,1344 l42,212" stroke="black" stroke-width="5"/>
<path d="M1848,6340 l60,0 l0,60 l-60,0 z" fill="green"/>
<path d="M1878,6370 l651,-262" stroke="black" stroke-width="5"/>
<path d="M7909,2665 l60,0 l0,60 l-60,0 z" fill="green"/>
<path d="M7939,2695 l-394,-145.5" stroke="black" stroke-width="5"/>
<path d="M2929,406 l60,0 l0,60 l-60,0 z" fill="green"/>
<path d="M2959,436 l147,-0.5" stroke="black" stroke-width="5"/>
<path d="M4365,5843 l60,0 l0,60 l-60,0 z" fill="green"/>
<path d="M4395,5873 l-213,-216" stroke="black" stroke-width="5"/>
<path d="M4712,4688 l60,0 l0,60 l-60,0 z" fill="green"/>
<path d="M4742,4718 l-62.5,14" stroke="black" stroke-width="5"/>
<path d="M6998,7113 l60,0 l0,60 l-60,0 z" fill="green"/>
<path d="M7028,7143 l-556,-152.5" stroke="black" stroke-width="5"/>
<path d="M3290,1407 l60,0 l0,60 l-60,0 z" fill="green"/>
<path d="M3320,1437 l249.5,-46.5" stroke="black" stroke-width="5"/>
<path d="M1575,9268 l60,0 l0,60 l-60,0 z" fill="green"/>
<path d="M1605,9298 l-499,283.5" stroke="black" stroke-width="5"/>
<path d="M7179,7135 l60,0 l0,60 l-60,0 z" fill="green"/>
<path d="M7209,7165 l9,30" stroke="black" stroke-width="5"/>
<path d="M1777,1868 l60,0 l0,60 l-60,0 z" fill="green"/>
<path d="M1807,1898 l165.5,-172" stroke="black" stroke-width="5"/>
<path d="M754,3521 l60,0 l0,60 l-60,0 z" fill="green"/>
<path d="M784,3551 l-361,-119.5" stroke="black" stroke-width="5"/>
<path d="M7676,8636 l60,0 l0,60 l-60,0 z" fill="green"/>
<path d="M7706,8666 l-75,124" stroke="black" stroke-width="5"/>
<path d="M5806,6259 l60,0 l0,60 l-60,0 z" fill="green"/>
<path d="M5836,6289 l92.5,-659.5" stroke="black" stroke-width="5"/>
<path d="M4109,9594 l60,0 l0,60 l-60,0 z" fill="green"/>
<path d="M4139,9624 l-338.5,168.5" stroke="black" stroke-width="5"/>
<path d="M4456,5924 l60,0 l0,60 l-60,0 z" fill="green"/>
<path d="M4486,5954 l291,-140" stroke="black" stroke-width="5"/>
<path d="M5219,5329 l60,0 l0,60 l-60,0 z" fill="green"/>
<path d="M5249,5359 l210.5,101" stroke="black" stroke-width="5"/>
<path d="M8916,8317 l60,0 l0,60 l-60,0 z" fill="green"/>
<path d="M8946,8347 l-2.5,87.5" stroke="black" stroke-width="5"/>
<path d="M9752,1853 l60,0 l0,60 l-60,0 z" fill="green"/>
<path d="M9782,1883 l55,2898.5" stroke="black" stroke-width="5"/>
<path d="M7501,6120 l60,0 l0,60 l-60,0 z" fill="green"/>
<path d="M7531,6150 l-56.5,524.5" stroke="black" stroke-width="5"/>
<path d="M2808,7701 l60,0 l0,60 l-60,0 z" fill="green"/>
<path d="M2838,7731 l294.5,-199" stroke="black" stroke-width="5"/>
<path d="M2203,6763 l60,0 l0,60 l-60,0 z" fill="green"/>
<path d="M2233,6793 l89,87" stroke="black" stroke-width="5"/>
<text font-size="114.33239009500589" text-anchor="middle" x="9145" y="866.5163365332521">
0
</text>
<text font-size="114.33239009500589" text-anchor="middle" x="8162.5" y="7688.516336533252">
1
</text>
<text font-size="114.33239009500589" text-anchor="middle" x="4318" y="828.5163365332521">
2
</text>
<text font-size="114.33239009500589" text-anchor="middle" x="2201.5" y="3918.516336533252">
3
</text>
<text font-size="114.33239009500589" text-anchor="middle" x="1230.5" y="6387.016336533252">
4
</text>
<text font-size="114.33239009500589" text-anchor="middle" x="8091" y="7344.516336533252">
5
</text>
<text font-size="114.33239009500589" text-anchor="middle" x="6737.5" y="3575.016336533252">
6
</text>
<text font-size="114.33239009500589" text-anchor="middle" x="4182" y="7004.016336533252">
7
</text>
<text font-size="114.33239009500589" text-anchor="middle" x="4505.5" y="3150.516336533252">
8
</text>
<text font-size="114.33239009500589" text-anchor="middle" x="2122" y="9652.016336533252">
9
</text>
<text font-size="114.33239009500589" text-anchor="middle" x="1313.5" y="6173.016336533252">
10
</text>
<text font-size="114.33239009500589" text-anchor="middle" x="2187" y="5760.516336533252">
11
</text>
<text font-size="114.33239009500589" text-anchor="middle" x="8553.5" y="4257.016336533252">
12
</text>
<text font-size="114.33239009500589" text-anchor="middle" x="428.5" y="4843.016336533252">
13
</text>
<text font-size="114.33239009500589" text-anchor="middle" x="7913" y="4294.516336533252">
14
</text>
<text font-size="114.33239009500589" text-anchor="middle" x="8365" y="398.51633653325206">
15
</text>
<text font-size="114.33239009500589" text-anchor="middle" x="6310.5" y="1690.0163365332521">
16
</text>
<text font-size="114.33239009500589" text-anchor="middle" x="2633.5" y="7659.016336533252">
17
</text>
<text font-size="114.33239009500589" text-anchor="middle" x="924.5" y="1428.5163365332521">
18
</text>
<text font-size="114.33239009500589" text-anchor="middle" x="4094.5" y="8719.516336533252">
19
</text>
<text font-size="114.33239009500589" text-anchor="middle" x="2452" y="5174.516336533252">
20
</text>
<text font-size="114.33239009500589" text-anchor="middle" x="5157" y="7562.516336533252">
21
</text>
<text font-size="114.33239009500589" text-anchor="middle" x="2433" y="5514.516336533252">
22
</text>
<text font-size="114.33239009500589" text-anchor="middle" x="7752" y="1061.0163365332521">
23
</text>
<text font-size="114.33239009500589" text-anchor="middle" x="1475.5" y="6972.516336533252">
24
</text>
<text font-size="114.33239009500589" text-anchor="middle" x="1020.5" y="5051.516336533252">
25
</text>
<text font-size="114.33239009500589" text-anchor="middle" x="9385" y="7326.516336533252">
26
</text>
<text font-size="114.33239009500589" text-anchor="middle" x="7139" y="6080.516336533252">
27
</text>
<text font-size="114.33239009500589" text-anchor="middle" x="4210" y="2889.516336533252">
28
</text>
<text font-size="114.33239009500589" text-anchor="middle" x="9002.5" y="1748.0163365332521">
29
</text>
<text font-size="114.33239009500589" text-anchor="middle" x="2780" y="1195.0163365332521">
30
</text>
<text font-size="114.33239009500589" text-anchor="middle" x="4840.5" y="9403.016336533252">
31
</text>
<text font-size="114.33239009500589" text-anchor="middle" x="4643.5" y="943.5163365332521">
32
</text>
<text font-size="114.33239009500589" text-anchor="middle" x="9990.5" y="4851.016336533252">
33
</text>
<text font-size="114.33239009500589" text-anchor="middle" x="1337.5" y="2591.016336533252">
34
</text>
<text font-size="114.33239009500589" text-anchor="middle" x="1002.5" y="2538.516336533252">
35
</text>
<text font-size="114.33239009500589" text-anchor="middle" x="5441.5" y="1393.0163365332521">
36
</text>
<text font-size="114.33239009500589" text-anchor="middle" x="422.5" y="574.0163365332521">
37
</text>
<text font-size="114.33239009500589" text-anchor="middle" x="7293.5" y="409.01633653325206">
38
</text>
<text font-size="114.33239009500589" text-anchor="middle" x="2457.5" y="3255.016336533252">
39
</text>
<text font-size="114.33239009500589" text-anchor="middle" x="9352.5" y="145.01633653325206">
40
</text>
<text font-size="114.33239009500589" text-anchor="middle" x="479.5" y="6264.016336533252">
41
</text>
<text font-size="114.33239009500589" text-anchor="middle" x="5420.5" y="138.51633653325206">
42
</text>
<text font-size="114.33239009500589" text-anchor="middle" x="1752" y="9094.016336533252">
43
</text>
<text font-size="114.33239009500589" text-anchor="middle" x="3471" y="6989.516336533252">
44
</text>
<text font-size="114.33239009500589" text-anchor="middle" x="8624" y="8807.516336533252">
45
</text>
<text font-size="114.33239009500589" text-anchor="middle" x="2616.5" y="6514.016336533252">
46
</text>
<text font-size="114.33239009500589" text-anchor="middle" x="8109.5" y="5647.016336533252">
47
</text>
<text font-size="114.33239009500589" text-anchor="middle" x="5673.5" y="3276.516336533252">
48
</text>
<text font-size="114.33239009500589" text-anchor="middle" x="5615" y="7719.516336533252">
49
</text>
<text font-size="114.33239009500589" text-anchor="middle" x="9593.5" y="6813.516336533252">
50
</text>
<text font-size="114.33239009500589" text-anchor="middle" x="5777.5" y="8264.016336533252">
51
</text>
<text font-size="114.33239009500589" text-anchor="middle" x="4530.5" y="3012.016336533252">
52
</text>
<text font-size="114.33239009500589" text-anchor="middle" x="1071.5" y="124.01633653325206">
53
</text>
<text font-size="114.33239009500589" text-anchor="middle" x="2639" y="4223.016336533252">
54
</text>
<text font-size="114.33239009500589" text-anchor="middle" x="8455.5" y="9430.516336533252">
55
</text>
<text font-size="114.33239009500589" text-anchor="middle" x="2113.5" y="4787.016336533252">
56
</text>
<text font-size="114.33239009500589" text-anchor="middle" x="2023" y="2600.516336533252">
57
</text>
<text font-size="114.33239009500589" text-anchor="middle" x="1746.5" y="1396.5163365332521">
58
</text>
<text font-size="114.33239009500589" text-anchor="middle" x="5938" y="264.51633653325206">
59
</text>
<text font-size="114.33239009500589" text-anchor="middle" x="5766" y="1816.5163365332521">
60
</text>
<text font-size="114.33239009500589" text-anchor="middle" x="8903" y="7630.016336533252">
61
</text>
<text font-size="114.33239009500589" text-anchor="middle" x="2010.5" y="7659.016336533252">
62
</text>
<text font-size="114.33239009500589" text-anchor="middle" x="8196" y="3133.516336533252">
63
</text>
<text font-size="114.33239009500589" text-anchor="middle" x="9509.5" y="3809.016336533252">
64
</text>
<text font-size="114.33239009500589" text-anchor="middle" x="4791" y="4924.516336533252">
65
</text>
<text font-size="114.33239009500589" text-anchor="middle" x="6601" y="9578.516336533252">
66
</text>
<text font-size="114.33239009500589" text-anchor="middle" x="2456" y="310.51633653325206">
67
</text>
<text font-size="114.33239009500589" text-anchor="middle" x="6702.5" y="8264.016336533252">
68
</text>
<text font-size="114.33239009500589" text-anchor="middle" x="6968.5" y="3857.016336533252">
69
</text>
<text font-size="114.33239009500589" text-anchor="middle" x="8081" y="3619.016336533252">
70
</text>
<text font-size="114.33239009500589" text-anchor="middle" x="3216" y="2049.516336533252">
71
</text>
<text font-size="114.33239009500589" text-anchor="middle" x="3716" y="6551.516336533252">
72
</text>
<text font-size="114.33239009500589" text-anchor="middle" x="6412" y="7403.016336533252">
73
</text>
<text font-size="114.33239009500589" text-anchor="middle" x="5113.5" y="2890.016336533252">
74
</text>
<text font-size="114.33239009500589" text-anchor="middle" x="8750.5" y="6147.016336533252">
75
</text>
<text font-size="114.33239009500589" text-anchor="middle" x="8067.5" y="1108.0163365332521">
76
</text>
<text font-size="114.33239009500589" text-anchor="middle" x="7443" y="8829.516336533252">
77
</text>
<text font-size="114.33239009500589" text-anchor="middle" x="1052" y="7274.516336533252">
78
</text>
<text font-size="114.33239009500589" text-anchor="middle" x="9232.5" y="6813.016336533252">
79
</text>
<text font-size="114.33239009500589" text-anchor="middle" x="3857.5" y="1732.0163365332521">
80
</text>
<text font-size="114.33239009500589" text-anchor="middle" x="2656.5" y="4505.016336533252">
81
</text>
<text font-size="114.33239009500589" text-anchor="middle" x="8858.5" y="2589.516336533252">
82
</text>
<text font-size="114.33239009500589" text-anchor="middle" x="8282" y="2093.516336533252">
83
</text>
<text font-size="114.33239009500589" text-anchor="middle" x="8104.5" y="6105.516336533252">
84
</text>
<text font-size="114.33239009500589" text-anchor="middle" x="479.5" y="7669.016336533252">
85
</text>
<text font-size="114.33239009500589" text-anchor="middle" x="2637.5" y="126.51633653325206">
86
</text>
<text font-size="114.33239009500589" text-anchor="middle" x="5051.5" y="919.5163365332521">
87
</text>
<text font-size="114.33239009500589" text-anchor="middle" x="8989" y="6389.516336533252">
88
</text>
<text font-size="114.33239009500589" text-anchor="middle" x="8449.5" y="7653.016336533252">
89
</text>
<text font-size="114.33239009500589" text-anchor="middle" x="4520" y="8480.516336533252">
90
</text>
<text font-size="114.33239009500589" text-anchor="middle" x="7293.5" y="1570.0163365332521">
91
</text>
<text font-size="114.33239009500589" text-anchor="middle" x="7293.5" y="1097.0163365332521">
92
</text>
<text font-size="114.33239009500589" text-anchor="middle" x="8701.5" y="8168.016336533252">
93
</text>
<text font-size="114.33239009500589" text-anchor="middle" x="7694" y="7837.516336533252">
94
</text>
<text font-size="114.33239009500589" text-anchor="middle" x="4132" y="2341.516336533252">
95
</text>
<text font-size="114.33239009500589" text-anchor="middle" x="1699" y="6438.516336533252">
96
</text>
<text font-size="114.33239009500589" text-anchor="middle" x="2616.5" y="6725.016336533252">
97
</text>
<text font-size="114.33239009500589" text-anchor="middle" x="8700" y="9207.516336533252">
98
</text>
<text font-size="114.33239009500589" text-anchor="middle" x="5717.5" y="2843.516336533252">
99
</text>
<text font-size="114.33239009500589" text-anchor="middle" x="5157" y="6404.016336533252">
100
</text>
<text font-size="114.33239009500589" text-anchor="middle" x="4889.5" y="3977.016336533252">
101
</text>
<text font-size="114.33239009500589" text-anchor="middle" x="9040.5" y="4094.516336533252">
102
</text>
<text font-size="114.33239009500589" text-anchor="middle" x="1078.5" y="1827.5163365332521">
103
</text>
<text font-size="114.33239009500589" text-anchor="middle" x="5116.5" y="2307.016336533252">
104
</text>
<text font-size="114.33239009500589" text-anchor="middle" x="4982.5" y="4436.516336533252">
105
</text>
<text font-size="114.33239009500589" text-anchor="middle" x="1495" y="758.0163365332521">
106
</text>
<text font-size="114.33239009500589" text-anchor="middle" x="8068" y="266.01633653325206">
107
</text>
<text font-size="114.33239009500589" text-anchor="middle" x="2105" y="3702.016336533252">
108
</text>
<text font-size="114.33239009500589" text-anchor="middle" x="1657.5" y="4387.516336533252">
109
</text>
<text font-size="114.33239009500589" text-anchor="middle" x="7591.5" y="1872.0163365332521">
110
</text>
<text font-size="114.33239009500589" text-anchor="middle" x="8282" y="2285.516336533252">
111
</text>
<text font-size="114.33239009500589" text-anchor="middle" x="5157" y="7159.516336533252">
112
</text>
<text font-size="114.33239009500589" text-anchor="middle" x="858" y="9090.016336533252">
113
</text>
<text font-size="114.33239009500589" text-anchor="middle" x="2279.5" y="1399.0163365332521">
114
</text>
<text font-size="114.33239009500589" text-anchor="middle" x="2591" y="2580.516336533252">
115
</text>
<text font-size="114.33239009500589" text-anchor="middle" x="2329" y="8507.516336533252">
116
</text>
<text font-size="114.33239009500589" text-anchor="middle" x="4407" y="8043.016336533252">
117
</text>
<text font-size="114.33239009500589" text-anchor="middle" x="5692.5" y="653.5163365332521">
118
</text>
<text font-size="114.33239009500589" text-anchor="middle" x="8550" y="5130.516336533252">
119
</text>
<text font-size="114.33239009500589" text-anchor="middle" x="935.5" y="1114.5163365332521">
120
</text>
<text font-size="114.33239009500589" text-anchor="middle" x="7253" y="3990.516336533252">
121
</text>
<text font-size="114.33239009500589" text-anchor="middle" x="4787.5" y="5344.516336533252">
122
</text>
<text font-size="114.33239009500589" text-anchor="middle" x="8104.5" y="6848.016336533252">
123
</text>
<text font-size="114.33239009500589" text-anchor="middle" x="6509" y="4074.016336533252">
124
</text>
<text font-size="114.33239009500589" text-anchor="middle" x="428" y="2716.516336533252">
125
</text>
<text font-size="114.33239009500589" text-anchor="middle" x="8135.5" y="9662.516336533252">
126
</text>
<text font-size="114.33239009500589" text-anchor="middle" x="8379.5" y="2808.016336533252">
127
</text>
<text font-size="114.33239009500589" text-anchor="middle" x="1680.5" y="2439.016336533252">
128
</text>
<text font-size="114.33239009500589" text-anchor="middle" x="8608.5" y="8531.516336533252">
129
</text>
<text font-size="114.33239009500589" text-anchor="middle" x="3226.5" y="3116.016336533252">
130
</text>
<text font-size="114.33239009500589" text-anchor="middle" x="175" y="1596.0163365332521">
131
</text>
<text font-size="114.33239009500589" text-anchor="middle" x="2529" y="6148.016336533252">
132
</text>
<text font-size="114.33239009500589" text-anchor="middle" x="7545" y="2589.516336533252">
133
</text>
<text font-size="114.33239009500589" text-anchor="middle" x="3106" y="475.51633653325206">
134
</text>
<text font-size="114.33239009500589" text-anchor="middle" x="4182" y="5697.016336533252">
135
</text>
<text font-size="114.33239009500589" text-anchor="middle" x="4679.5" y="4772.016336533252">
136
</text>
<text font-size="114.33239009500589" text-anchor="middle" x="6472" y="7030.516336533252">
137
</text>
<text font-size="114.33239009500589" text-anchor="middle" x="3569.5" y="1430.5163365332521">
138
</text>
<text font-size="114.33239009500589" text-anchor="middle" x="1106" y="9621.516336533252">
139
</text>
<text font-size="114.33239009500589" text-anchor="middle" x="7218" y="7235.016336533252">
140
</text>
<text font-size="114.33239009500589" text-anchor="middle" x="1972.5" y="1766.0163365332521">
141
</text>
<text font-size="114.33239009500589" text-anchor="middle" x="423" y="3471.516336533252">
142
</text>
<text font-size="114.33239009500589" text-anchor="middle" x="7631" y="8830.016336533252">
143
</text>
<text font-size="114.33239009500589" text-anchor="middle" x="5928.5" y="5669.516336533252">
144
</text>
<text font-size="114.33239009500589" text-anchor="middle" x="3800.5" y="9832.516336533252">
145
</text>
<text font-size="114.33239009500589" text-anchor="middle" x="4777" y="5854.016336533252">
146
</text>
<text font-size="114.33239009500589" text-anchor="middle" x="5459.5" y="5500.016336533252">
147
</text>
<text font-size="114.33239009500589" text-anchor="middle" x="8943.5" y="8474.516336533252">
148
</text>
<text font-size="114.33239009500589" text-anchor="middle" x="9837" y="4821.516336533252">
149
</text>
<text font-size="114.33239009500589" text-anchor="middle" x="7474.5" y="6714.516336533252">
150
</text>
<text font-size="114.33239009500589" text-anchor="middle" x="3132.5" y="7572.016336533252">
151
</text>
<text font-size="114.33239009500589" text-anchor="middle" x="2322" y="6920.016336533252">
152
</text>
</svg>