<svg viewBox="0 0 10000 10000" xmlns="http://www.w3.org/2000/svg">
<path d="M0,0 l10000,0 l0,10000 l-10000,0 z" fill="white"/>
<path d="M2588,5231 l1586,0 l0,537 l-1586,0 z" fill="#f400ff" stroke="black" stroke-width="5"/>
<path d="M7928,4974 l355,0 l0,604 l-355,0 z" fill="#ff00ff" stroke="black" stroke-width="5"/>
<path d="M2210,1826 l3636,0 l0,360 l-3636,0 z" fill="#7a00ff" stroke="black" stroke-width="5"/>
<path d="M2598,6217 l249,0 l0,666 l-249,0 z" fill="#ff00fe" stroke="black" stroke-width="5"/>
<path d="M5965,6369 l361,0 l0,2576 l-361,0 z" fill="#fe00ff" stroke="black" stroke-width="5"/>
<path d="M0,5022 l408,0 l0,4550 l-408,0 z" fill="#f400ff" stroke="black" stroke-width="5"/>
<path d="M7464,7735 l18,0 l0,607 l-18,0 z" fill="#ff00ff" stroke="black" stroke-width="5"/>
<path d="M2369,9739 l1811,0 l0,11 l-1811,0 z" fill="#ff00ff" stroke="black" stroke-width="5"/>
<path d="M3212,4549 l312,0 l0,458 l-312,0 z" fill="#ff00ff" stroke="black" stroke-width="5"/>
<path d="M6160,2601 l103,0 l0,673 l-103,0 z" fill="#ff00fe" stroke="black" stroke-width="5"/>
<path d="M804,9895 l6143,0 l0,11 l-6143,0 z" fill="#ff00ff" stroke="black" stroke-width="5"/>
<path d="M0,3355 l1040,0 l0,1194 l-1040,0 z" fill="#e700ff" stroke="black" stroke-width="5"/>
<path d="M2284,9428 l1050,0 l0,110 l-1050,0 z" fill="#ff00fe" stroke="black" stroke-width="5"/>
<path d="M0,2989 l3895,0 l0,366 l-3895,0 z" fill="#f900ff" stroke="black" stroke-width="5"/>
<path d="M5869,89 l238,0 l0,133 l-238,0 z" fill="#ff00fe" stroke="black" stroke-width="5"/>
<path d="M723,6208 l1875,0 l0,206 l-1875,0 z" fill="#fc00ff" stroke="black" stroke-width="5"/>
<path d="M2284,6883 l1222,0 l0,1121 l-1222,0 z" fill="#e000ff" stroke="black" stroke-width="5"/>
<path d="M4740,622 l1106,0 l0,847 l-1106,0 z" fill="#b800ff" stroke="black" stroke-width="5"/>
<path d="M3506,6208 l617,0 l0,1587 l-617,0 z" fill="#fd00ff" stroke="black" stroke-width="5"/>
<path d="M3701,4004 l473,0 l0,1227 l-473,0 z" fill="#dd00ff" stroke="black" stroke-width="5"/>
<path d="M9688,5735 l213,0 l0,540 l-213,0 z" fill="#ff00fe" stroke="black" stroke-width="5"/>
<path d="M3637,8004 l447,0 l0,627 l-447,0 z" fill="#ff00fe" stroke="black" stroke-width="5"/>
<path d="M6564,255 l274,0 l0,1510 l-274,0 z" fill="#fb00ff" stroke="black" stroke-width="5"/>
<path d="M2029,9047 l255,0 l0,492 l-255,0 z" fill="#fd00ff" stroke="black" stroke-width="5"/>
<path d="M5965,8945 l269,0 l0,764 l-269,0 z" fill="#ff00fe" stroke="black" stroke-width="5"/>
<path d="M1500,816 l57,0 l0,1367 l-57,0 z" fill="#ff00fe" stroke="black" stroke-width="5"/>
<path d="M0,4597 l1027,0 l0,425 l-1027,0 z" fill="#ff00ff" stroke="black" stroke-width="5"/>
<path d="M763,92 l728,0 l0,571 l-728,0 z" fill="#fe00ff" stroke="black" stroke-width="5"/>
<path d="M4225,2601 l114,0 l0,1067 l-114,0 z" fill="#ff00ff" stroke="black" stroke-width="5"/>
<path d="M2030,6883 l190,0 l0,677 l-190,0 z" fill="#ff00fe" stroke="black" stroke-width="5"/>
<path d="M0,0 l397,0 l0,1797 l-397,0 z" fill="#9a00ff" stroke="black" stroke-width="5"/>
<path d="M447,2636 l1001,0 l0,339 l-1001,0 z" fill="#fe00ff" stroke="black" stroke-width="5"/>
<path d="M408,8531 l1622,0 l0,516 l-1622,0 z" fill="#d300ff" stroke="black" stroke-width="5"/>
<path d="M7348,255 l991,0 l0,787 l-991,0 z" fill="#f900ff" stroke="black" stroke-width="5"/>
<path d="M7975,7362 l1713,0 l0,415 l-1713,0 z" fill="#e000ff" stroke="black" stroke-width="5"/>
<path d="M4740,0 l5174,0 l0,68 l-5174,0 z" fill="#4800ff" stroke="black" stroke-width="5"/>
<path d="M3506,7795 l589,0 l0,204 l-589,0 z" fill="#ff00fe" stroke="black" stroke-width="5"/>
<path d="M408,5022 l766,0 l0,977 l-766,0 z" fill="#f500ff" stroke="black" stroke-width="5"/>
<path d="M1491,2572 l1642,0 l0,321 l-1642,0 z" fill="#fe00ff" stroke="black" stroke-width="5"/>
<path d="M7928,1042 l938,0 l0,1105 l-938,0 z" fill="#d500ff" stroke="black" stroke-width="5"/>
<path d="M8866,1042 l125,0 l0,3433 l-125,0 z" fill="#fe00ff" stroke="black" stroke-width="5"/>
<path d="M8348,4475 l128,0 l0,761 l-128,0 z" fill="#ff00ff" stroke="black" stroke-width="5"/>
<path d="M8633,2147 l74,0 l0,2011 l-74,0 z" fill="#ff00fe" stroke="black" stroke-width="5"/>
<path d="M4544,4787 l2020,0 l0,279 l-2020,0 z" fill="#fe00ff" stroke="black" stroke-width="5"/>
<path d="M7037,9375 l2218,0 l0,488 l-2218,0 z" fill="#fe00ff" stroke="black" stroke-width="5"/>
<path d="M6326,6369 l506,0 l0,2576 l-506,0 z" fill="#fc00ff" stroke="black" stroke-width="5"/>
<path d="M2210,1469 l3636,0 l0,357 l-3636,0 z" fill="#9400ff" stroke="black" stroke-width="5"/>
<path d="M5613,3770 l301,0 l0,145 l-301,0 z" fill="#ff00fe" stroke="black" stroke-width="5"/>
<path d="M6838,501 l510,0 l0,1264 l-510,0 z" fill="#f000ff" stroke="black" stroke-width="5"/>
<path d="M4174,5410 l1346,0 l0,219 l-1346,0 z" fill="#ff00ff" stroke="black" stroke-width="5"/>
<path d="M4223,7154 l790,0 l0,1686 l-790,0 z" fill="#de00ff" stroke="black" stroke-width="5"/>
<path d="M8348,6521 l724,0 l0,733 l-724,0 z" fill="#7200ff" stroke="black" stroke-width="5"/>
<path d="M7578,7362 l397,0 l0,516 l-397,0 z" fill="#ff00ff" stroke="black" stroke-width="5"/>
<path d="M0,9572 l408,0 l0,428 l-408,0 z" fill="#fe00ff" stroke="black" stroke-width="5"/>
<path d="M1174,4549 l1414,0 l0,1219 l-1414,0 z" fill="#cc00ff" stroke="black" stroke-width="5"/>
<path d="M2348,9856 l3161,0 l0,29 l-3161,0 z" fill="#fe00ff" stroke="black" stroke-width="5"/>
<path d="M5170,2462 l1146,0 l0,114 l-1146,0 z" fill="#ff00fe" stroke="black" stroke-width="5"/>
<path d="M2520,816 l839,0 l0,591 l-839,0 z" fill="#f800ff" stroke="black" stroke-width="5"/>
<path d="M5846,255 l470,0 l0,757 l-470,0 z" fill="#f900ff" stroke="black" stroke-width="5"/>
<path d="M6564,1765 l632,0 l0,3301 l-632,0 z" fill="#fe00ff" stroke="black" stroke-width="5"/>
<path d="M1491,2186 l4355,0 l0,276 l-4355,0 z" fill="#a100ff" stroke="black" stroke-width="5"/>
<path d="M1560,3966 l2673,0 l0,38 l-2673,0 z" fill="#fe00ff" stroke="black" stroke-width="5"/>
<path d="M7482,7254 l2206,0 l0,108 l-2206,0 z" fill="#9700ff" stroke="black" stroke-width="5"/>
<path d="M2502,0 l525,0 l0,816 l-525,0 z" fill="#f900ff" stroke="black" stroke-width="5"/>
<path d="M9072,1042 l842,0 l0,2028 l-842,0 z" fill="#f800ff" stroke="black" stroke-width="5"/>
<path d="M8339,255 l1575,0 l0,787 l-1575,0 z" fill="#d100ff" stroke="black" stroke-width="5"/>
<path d="M7196,1765 l303,0 l0,887 l-303,0 z" fill="#ff00fe" stroke="black" stroke-width="5"/>
<path d="M3895,2601 l330,0 l0,1356 l-330,0 z" fill="#fe00ff" stroke="black" stroke-width="5"/>
<path d="M2758,8004 l595,0 l0,29 l-595,0 z" fill="#ff00ff" stroke="black" stroke-width="5"/>
<path d="M8348,5334 l134,0 l0,628 l-134,0 z" fill="#fe00ff" stroke="black" stroke-width="5"/>
<path d="M7348,1042 l580,0 l0,723 l-580,0 z" fill="#f600ff" stroke="black" stroke-width="5"/>
<path d="M5427,6369 l510,0 l0,2102 l-510,0 z" fill="#fe00ff" stroke="black" stroke-width="5"/>
<path d="M2029,9539 l283,0 l0,340 l-283,0 z" fill="#ff00fe" stroke="black" stroke-width="5"/>
<path d="M2242,2905 l1588,0 l0,84 l-1588,0 z" fill="#ff00ff" stroke="black" stroke-width="5"/>
<path d="M5013,6369 l414,0 l0,1799 l-414,0 z" fill="#ed00ff" stroke="black" stroke-width="5"/>
<path d="M4174,4004 l178,0 l0,1406 l-178,0 z" fill="#cf00ff" stroke="black" stroke-width="5"/>
<path d="M4574,3915 l905,0 l0,846 l-905,0 z" fill="#ff00fe" stroke="black" stroke-width="5"/>
<path d="M3048,3355 l823,0 l0,582 l-823,0 z" fill="#ff00fe" stroke="black" stroke-width="5"/>
<path d="M2432,5768 l3261,0 l0,7 l-3261,0 z" fill="#ff00ff" stroke="black" stroke-width="5"/>
<path d="M9072,5735 l616,0 l0,1519 l-616,0 z" fill="#f400ff" stroke="black" stroke-width="5"/>
<path d="M5013,6210 l1813,0 l0,159 l-1813,0 z" fill="#fe00ff" stroke="black" stroke-width="5"/>
<path d="M443,6071 l701,0 l0,137 l-701,0 z" fill="#ff00ff" stroke="black" stroke-width="5"/>
<path d="M408,6208 l315,0 l0,2323 l-315,0 z" fill="#fe00ff" stroke="black" stroke-width="5"/>
<path d="M2588,5009 l1113,0 l0,222 l-1113,0 z" fill="#fe00ff" stroke="black" stroke-width="5"/>
<path d="M8348,5978 l724,0 l0,543 l-724,0 z" fill="#ff00fe" stroke="black" stroke-width="5"/>
<path d="M7405,2652 l94,0 l0,1691 l-94,0 z" fill="#fe00ff" stroke="black" stroke-width="5"/>
<path d="M4544,2601 l572,0 l0,1279 l-572,0 z" fill="#fe00ff" stroke="black" stroke-width="5"/>
<path d="M884,2090 l607,0 l0,546 l-607,0 z" fill="#7500ff" stroke="black" stroke-width="5"/>
<path d="M5486,8593 l479,0 l0,723 l-479,0 z" fill="#ff00fe" stroke="black" stroke-width="5"/>
<path d="M293,2090 l591,0 l0,546 l-591,0 z" fill="#ea00ff" stroke="black" stroke-width="5"/>
<path d="M2284,8004 l467,0 l0,1398 l-467,0 z" fill="#fe00ff" stroke="black" stroke-width="5"/>
<path d="M1560,4004 l2141,0 l0,545 l-2141,0 z" fill="#8d00ff" stroke="black" stroke-width="5"/>
<path d="M8348,2183 l217,0 l0,2122 l-217,0 z" fill="#fe00ff" stroke="black" stroke-width="5"/>
<path d="M7037,5776 l1311,0 l0,1478 l-1311,0 z" fill="#c800ff" stroke="black" stroke-width="5"/>
<path d="M5013,5776 l1613,0 l0,351 l-1613,0 z" fill="#fe00ff" stroke="black" stroke-width="5"/>
<path d="M6832,5776 l205,0 l0,3963 l-205,0 z" fill="#fd00ff" stroke="black" stroke-width="5"/>
<path d="M723,7459 l1210,0 l0,1072 l-1210,0 z" fill="#ff00ff" stroke="black" stroke-width="5"/>
<path d="M0,1797 l1085,0 l0,293 l-1085,0 z" fill="#ec00ff" stroke="black" stroke-width="5"/>
<path d="M1085,663 l406,0 l0,1427 l-406,0 z" fill="#7100ff" stroke="black" stroke-width="5"/>
<path d="M4740,68 l1106,0 l0,554 l-1106,0 z" fill="#f800ff" stroke="black" stroke-width="5"/>
<path d="M3027,0 l1262,0 l0,816 l-1262,0 z" fill="#cc00ff" stroke="black" stroke-width="5"/>
<path d="M7499,1765 l429,0 l0,2578 l-429,0 z" fill="#fe00ff" stroke="black" stroke-width="5"/>
<path d="M2588,4549 l624,0 l0,460 l-624,0 z" fill="#f600ff" stroke="black" stroke-width="5"/>
<path d="M8489,5364 l551,0 l0,612 l-551,0 z" fill="#fe00ff" stroke="black" stroke-width="5"/>
<path d="M2348,9539 l3079,0 l0,200 l-3079,0 z" fill="#fe00ff" stroke="black" stroke-width="5"/>
<path d="M4289,0 l451,0 l0,1407 l-451,0 z" fill="#ee00ff" stroke="black" stroke-width="5"/>
<path d="M6316,255 l248,0 l0,4532 l-248,0 z" fill="#d400ff" stroke="black" stroke-width="5"/>
<path d="M2210,1407 l2530,0 l0,62 l-2530,0 z" fill="#fe00ff" stroke="black" stroke-width="5"/>
<path d="M4125,5999 l98,0 l0,1162 l-98,0 z" fill="#ff00fe" stroke="black" stroke-width="5"/>
<path d="M397,663 l381,0 l0,1134 l-381,0 z" fill="#4000ff" stroke="black" stroke-width="5"/>
<path d="M6838,313 l352,0 l0,188 l-352,0 z" fill="#ff00fe" stroke="black" stroke-width="5"/>
<path d="M778,663 l307,0 l0,1134 l-307,0 z" fill="#de00ff" stroke="black" stroke-width="5"/>
<path d="M1557,816 l963,0 l0,591 l-963,0 z" fill="#f500ff" stroke="black" stroke-width="5"/>
<path d="M729,9047 l75,0 l0,859 l-75,0 z" fill="#ff00fe" stroke="black" stroke-width="5"/>
<path d="M7975,7777 l1697,0 l0,448 l-1697,0 z" fill="#ff00fe" stroke="black" stroke-width="5"/>
<path d="M4223,5999 l790,0 l0,1155 l-790,0 z" fill="#f100ff" stroke="black" stroke-width="5"/>
<path d="M3763,5776 l1200,0 l0,204 l-1200,0 z" fill="#ff00ff" stroke="black" stroke-width="5"/>
<path d="M4544,5066 l803,0 l0,306 l-803,0 z" fill="#fe00ff" stroke="black" stroke-width="5"/>
<path d="M5013,8168 l414,0 l0,672 l-414,0 z" fill="#fd00ff" stroke="black" stroke-width="5"/>
<path d="M35,2090 l258,0 l0,668 l-258,0 z" fill="#ff00fe" stroke="black" stroke-width="5"/>
<path d="M8991,1042 l77,0 l0,4163 l-77,0 z" fill="#ff00ff" stroke="black" stroke-width="5"/>
<path d="M1491,0 l1011,0 l0,816 l-1011,0 z" fill="#e500ff" stroke="black" stroke-width="5"/>
<path d="M9072,3070 l842,0 l0,1559 l-842,0 z" fill="#fb00ff" stroke="black" stroke-width="5"/>
<path d="M7197,2652 l208,0 l0,869 l-208,0 z" fill="#ff00ff" stroke="black" stroke-width="5"/>
<path d="M1040,3355 l520,0 l0,1194 l-520,0 z" fill="#f900ff" stroke="black" stroke-width="5"/>
<path d="M1560,3355 l1479,0 l0,610 l-1479,0 z" fill="#fd00ff" stroke="black" stroke-width="5"/>
<path d="M4352,2601 l192,0 l0,2809 l-192,0 z" fill="#fe00ff" stroke="black" stroke-width="5"/>
<path d="M3359,816 l930,0 l0,591 l-930,0 z" fill="#f400ff" stroke="black" stroke-width="5"/>
<path d="M1557,1407 l653,0 l0,779 l-653,0 z" fill="#f600ff" stroke="black" stroke-width="5"/>
<path d="M3637,8840 l1567,0 l0,430 l-1567,0 z" fill="#ff00fe" stroke="black" stroke-width="5"/>
<path d="M723,6414 l827,0 l0,117 l-827,0 z" fill="#ff00ff" stroke="black" stroke-width="5"/>
<path d="M9688,6332 l199,0 l0,1851 l-199,0 z" fill="#fe00ff" stroke="black" stroke-width="5"/>
<path d="M7482,8234 l2518,0 l0,1141 l-2518,0 z" fill="#fe00ff" stroke="black" stroke-width="5"/>
<path d="M6107,68 l3807,0 l0,187 l-3807,0 z" fill="#e600ff" stroke="black" stroke-width="5"/>
<path d="M804,9047 l1225,0 l0,848 l-1225,0 z" fill="#8600ff" stroke="black" stroke-width="5"/>
<path d="M7196,4343 l687,0 l0,721 l-687,0 z" fill="#fe00ff" stroke="black" stroke-width="5"/>
<path d="M9914,0 l86,0 l0,8234 l-86,0 z" fill="#fe00ff" stroke="black" stroke-width="5"/>
<path d="M5846,1012 l470,0 l0,1450 l-470,0 z" fill="#ea00ff" stroke="black" stroke-width="5"/>
<path d="M7928,2147 l351,0 l0,2034 l-351,0 z" fill="#ff00ff" stroke="black" stroke-width="5"/>
<path d="M9072,4645 l686,0 l0,283 l-686,0 z" fill="#fe00ff" stroke="black" stroke-width="5"/>
<path d="M397,0 l366,0 l0,663 l-366,0 z" fill="#fe00ff" stroke="black" stroke-width="5"/>
<path d="M9072,4945 l842,0 l0,790 l-842,0 z" fill="#fe00ff" stroke="black" stroke-width="5"/>
<path d="M4070,5737 l60,0 l0,60 l-60,0 z" fill="green"/>
<path d="M4100,5767 l-719,-267.5" stroke="black" stroke-width="5"/>
<path d="M8114,5547 l60,0 l0,60 l-60,0 z" fill="green"/>
<path d="M8144,5577 l-38.5,-301" stroke="black" stroke-width="5"/>
<path d="M5586,2029 l60,0 l0,60 l-60,0 z" fill="green"/>
<path d="M5616,2059 l-1588,-53" stroke="black" stroke-width="5"/>
<path d="M2568,6852 l60,0 l0,60 l-60,0 z" fill="green"/>
<path d="M2598,6882 l124.5,-332" stroke="black" stroke-width="5"/>
<path d="M6158,7695 l60,0 l0,60 l-60,0 z" fill="green"/>
<path d="M6188,7725 l-42.5,-68" stroke="black" stroke-width="5"/>
<path d="M55,5761 l60,0 l0,60 l-60,0 z" fill="green"/>
<path d="M85,5791 l119,1506" stroke="black" stroke-width="5"/>
<path d="M7451,8311 l60,0 l0,60 l-60,0 z" fill="green"/>
<path d="M7481,8341 l-8,-302.5" stroke="black" stroke-width="5"/>
<path d="M4149,9709 l60,0 l0,60 l-60,0 z" fill="green"/>
<path d="M4179,9739 l-904.5,5.5" stroke="black" stroke-width="5"/>
<path d="M3182,4540 l60,0 l0,60 l-60,0 z" fill="green"/>
<path d="M3212,4570 l156,208" stroke="black" stroke-width="5"/>
<path d="M6232,2652 l60,0 l0,60 l-60,0 z" fill="green"/>
<path d="M6262,2682 l-50.5,255.5" stroke="black" stroke-width="5"/>
<path d="M3700,9865 l60,0 l0,60 l-60,0 z" fill="green"/>
<path d="M3730,9895 l145.5,5.5" stroke="black" stroke-width="5"/>
<path d="M1009,3918 l60,0 l0,60 l-60,0 z" fill="green"/>
<path d="M1039,3948 l-519,4" stroke="black" stroke-width="5"/>
<path d="M2475,9481 l60,0 l0,60 l-60,0 z" fill="green"/>
<path d="M2505,9511 l304,-28" stroke="black" stroke-width="5"/>
<path d="M730,3029 l60,0 l0,60 l-60,0 z" fill="green"/>
<path d="M760,3059 l1187.5,113" stroke="black" stroke-width="5"/>
<path d="M6076,191 l60,0 l0,60 l-60,0 z" fill="green"/>
<path d="M6106,221 l-118,-65.5" stroke="black" stroke-width="5"/>
<path d="M985,6220 l60,0 l0,60 l-60,0 z" fill="green"/>
<path d="M1015,6250 l645.5,61" stroke="black" stroke-width="5"/>
<path d="M2271,7927 l60,0 l0,60 l-60,0 z" fill="green"/>
<path d="M2301,7957 l594,-513.5" stroke="black" stroke-width="5"/>
<path d="M5561,1054 l60,0 l0,60 l-60,0 z" fill="green"/>
<path d="M5591,1084 l-298,-38.5" stroke="black" stroke-width="5"/>
<path d="M4000,7217 l60,0 l0,60 l-60,0 z" fill="green"/>
<path d="M4030,7247 l-215.5,-245.5" stroke="black" stroke-width="5"/>
<path d="M4143,4037 l60,0 l0,60 l-60,0 z" fill="green"/>
<path d="M4173,4067 l-235.5,550.5" stroke="black" stroke-width="5"/>
<path d="M9658,5778 l60,0 l0,60 l-60,0 z" fill="green"/>
<path d="M9688,5808 l106.5,197" stroke="black" stroke-width="5"/>
<path d="M3823,7996 l60,0 l0,60 l-60,0 z" fill="green"/>
<path d="M3853,8026 l7.5,291.5" stroke="black" stroke-width="5"/>
<path d="M6534,225 l60,0 l0,60 l-60,0 z" fill="green"/>
<path d="M6564,255 l137,755" stroke="black" stroke-width="5"/>
<path d="M2017,9272 l60,0 l0,60 l-60,0 z" fill="green"/>
<path d="M2047,9302 l109.5,-9" stroke="black" stroke-width="5"/>
<path d="M6111,8915 l60,0 l0,60 l-60,0 z" fill="green"/>
<path d="M6141,8945 l-41.5,382" stroke="black" stroke-width="5"/>
<path d="M1526,1707 l60,0 l0,60 l-60,0 z" fill="green"/>
<path d="M1556,1737 l-27.5,-237.5" stroke="black" stroke-width="5"/>
<path d="M10,4991 l60,0 l0,60 l-60,0 z" fill="green"/>
<path d="M40,5021 l473.5,-211.5" stroke="black" stroke-width="5"/>
<path d="M733,632 l60,0 l0,60 l-60,0 z" fill="green"/>
<path d="M763,662 l364,-284.5" stroke="black" stroke-width="5"/>
<path d="M4195,2872 l60,0 l0,60 l-60,0 z" fill="green"/>
<path d="M4225,2902 l57,232.5" stroke="black" stroke-width="5"/>
<path d="M2000,7205 l60,0 l0,60 l-60,0 z" fill="green"/>
<path d="M2030,7235 l95,-13.5" stroke="black" stroke-width="5"/>
<path d="M231,538 l60,0 l0,60 l-60,0 z" fill="green"/>
<path d="M261,568 l-62.5,330.5" stroke="black" stroke-width="5"/>
<path d="M1417,2606 l60,0 l0,60 l-60,0 z" fill="green"/>
<path d="M1447,2636 l-499.5,169.5" stroke="black" stroke-width="5"/>
<path d="M1470,8553 l60,0 l0,60 l-60,0 z" fill="green"/>
<path d="M1500,8583 l-281,206" stroke="black" stroke-width="5"/>
<path d="M8308,409 l60,0 l0,60 l-60,0 z" fill="green"/>
<path d="M8338,439 l-494.5,209.5" stroke="black" stroke-width="5"/>
<path d="M8286,7377 l60,0 l0,60 l-60,0 z" fill="green"/>
<path d="M8316,7407 l515.5,162.5" stroke="black" stroke-width="5"/>
<path d="M9189,-25 l60,0 l0,60 l-60,0 z" fill="green"/>
<path d="M9219,5 l-1892,29" stroke="black" stroke-width="5"/>
<path d="M3888,7880 l60,0 l0,60 l-60,0 z" fill="green"/>
<path d="M3918,7910 l-117.5,-13" stroke="black" stroke-width="5"/>
<path d="M383,5542 l60,0 l0,60 l-60,0 z" fill="green"/>
<path d="M413,5572 l378,-61.5" stroke="black" stroke-width="5"/>
<path d="M3051,2862 l60,0 l0,60 l-60,0 z" fill="green"/>
<path d="M3081,2892 l-769,-159.5" stroke="black" stroke-width="5"/>
<path d="M8710,1028 l60,0 l0,60 l-60,0 z" fill="green"/>
<path d="M8740,1058 l-343,536.5" stroke="black" stroke-width="5"/>
<path d="M8836,2506 l60,0 l0,60 l-60,0 z" fill="green"/>
<path d="M8866,2536 l62.5,222.5" stroke="black" stroke-width="5"/>
<path d="M8349,4445 l60,0 l0,60 l-60,0 z" fill="green"/>
<path d="M8379,4475 l33,380.5" stroke="black" stroke-width="5"/>
<path d="M8603,2189 l60,0 l0,60 l-60,0 z" fill="green"/>
<path d="M8633,2219 l37,933.5" stroke="black" stroke-width="5"/>
<path d="M4514,4823 l60,0 l0,60 l-60,0 z" fill="green"/>
<path d="M4544,4853 l1010,73.5" stroke="black" stroke-width="5"/>
<path d="M9141,9345 l60,0 l0,60 l-60,0 z" fill="green"/>
<path d="M9171,9375 l-1025,244" stroke="black" stroke-width="5"/>
<path d="M6414,6626 l60,0 l0,60 l-60,0 z" fill="green"/>
<path d="M6444,6656 l135,1001" stroke="black" stroke-width="5"/>
<path d="M2634,1687 l60,0 l0,60 l-60,0 z" fill="green"/>
<path d="M2664,1717 l1364,-69.5" stroke="black" stroke-width="5"/>
<path d="M5883,3884 l60,0 l0,60 l-60,0 z" fill="green"/>
<path d="M5913,3914 l-149.5,-71.5" stroke="black" stroke-width="5"/>
<path d="M6897,1723 l60,0 l0,60 l-60,0 z" fill="green"/>
<path d="M6927,1753 l166,-620" stroke="black" stroke-width="5"/>
<path d="M4633,5380 l60,0 l0,60 l-60,0 z" fill="green"/>
<path d="M4663,5410 l184,109.5" stroke="black" stroke-width="5"/>
<path d="M4982,7389 l60,0 l0,60 l-60,0 z" fill="green"/>
<path d="M5012,7419 l-394,578" stroke="black" stroke-width="5"/>
<path d="M8489,7223 l60,0 l0,60 l-60,0 z" fill="green"/>
<path d="M8519,7253 l191,-365.5" stroke="black" stroke-width="5"/>
<path d="M7944,7332 l60,0 l0,60 l-60,0 z" fill="green"/>
<path d="M7974,7362 l-197.5,258" stroke="black" stroke-width="5"/>
<path d="M327,9703 l60,0 l0,60 l-60,0 z" fill="green"/>
<path d="M357,9733 l-153,53" stroke="black" stroke-width="5"/>
<path d="M2557,5132 l60,0 l0,60 l-60,0 z" fill="green"/>
<path d="M2587,5162 l-706,-3.5" stroke="black" stroke-width="5"/>
<path d="M2482,9826 l60,0 l0,60 l-60,0 z" fill="green"/>
<path d="M2512,9856 l1416.5,14.5" stroke="black" stroke-width="5"/>
<path d="M6285,2432 l60,0 l0,60 l-60,0 z" fill="green"/>
<path d="M6315,2462 l-572,57" stroke="black" stroke-width="5"/>
<path d="M3328,1263 l60,0 l0,60 l-60,0 z" fill="green"/>
<path d="M3358,1293 l-418.5,-181.5" stroke="black" stroke-width="5"/>
<path d="M6144,714 l60,0 l0,60 l-60,0 z" fill="green"/>
<path d="M6174,744 l-93,-110.5" stroke="black" stroke-width="5"/>
<path d="M7110,1803 l60,0 l0,60 l-60,0 z" fill="green"/>
<path d="M7140,1833 l-260,1582.5" stroke="black" stroke-width="5"/>
<path d="M1620,2401 l60,0 l0,60 l-60,0 z" fill="green"/>
<path d="M1650,2431 l2018.5,-107" stroke="black" stroke-width="5"/>
<path d="M2919,3973 l60,0 l0,60 l-60,0 z" fill="green"/>
<path d="M2949,4003 l-52.5,-18" stroke="black" stroke-width="5"/>
<path d="M9566,7321 l60,0 l0,60 l-60,0 z" fill="green"/>
<path d="M9596,7351 l-1011,-43" stroke="black" stroke-width="5"/>
<path d="M2689,371 l60,0 l0,60 l-60,0 z" fill="green"/>
<path d="M2719,401 l45.5,7" stroke="black" stroke-width="5"/>
<path d="M9524,2582 l60,0 l0,60 l-60,0 z" fill="green"/>
<path d="M9554,2612 l-61,-556" stroke="black" stroke-width="5"/>
<path d="M8420,364 l60,0 l0,60 l-60,0 z" fill="green"/>
<path d="M8450,394 l676.5,254.5" stroke="black" stroke-width="5"/>
<path d="M7439,2383 l60,0 l0,60 l-60,0 z" fill="green"/>
<path d="M7469,2413 l-121.5,-204.5" stroke="black" stroke-width="5"/>
<path d="M4141,3762 l60,0 l0,60 l-60,0 z" fill="green"/>
<path d="M4171,3792 l-111,-513" stroke="black" stroke-width="5"/>
<path d="M2728,7974 l60,0 l0,60 l-60,0 z" fill="green"/>
<path d="M2758,8004 l297.5,14.5" stroke="black" stroke-width="5"/>
<path d="M8399,5807 l60,0 l0,60 l-60,0 z" fill="green"/>
<path d="M8429,5837 l-14,-189" stroke="black" stroke-width="5"/>
<path d="M7792,1559 l60,0 l0,60 l-60,0 z" fill="green"/>
<path d="M7822,1589 l-184,-185.5" stroke="black" stroke-width="5"/>
<path d="M5397,8058 l60,0 l0,60 l-60,0 z" fill="green"/>
<path d="M5427,8088 l255,-668" stroke="black" stroke-width="5"/>
<path d="M2005,9685 l60,0 l0,60 l-60,0 z" fill="green"/>
<path d="M2035,9715 l135.5,-6" stroke="black" stroke-width="5"/>
<path d="M3799,2958 l60,0 l0,60 l-60,0 z" fill="green"/>
<path d="M3829,2988 l-793,-41" stroke="black" stroke-width="5"/>
<path d="M5300,7892 l60,0 l0,60 l-60,0 z" fill="green"/>
<path d="M5330,7922 l-110,-653.5" stroke="black" stroke-width="5"/>
<path d="M4266,4297 l60,0 l0,60 l-60,0 z" fill="green"/>
<path d="M4296,4327 l-33,380" stroke="black" stroke-width="5"/>
<path d="M5448,4130 l60,0 l0,60 l-60,0 z" fill="green"/>
<path d="M5478,4160 l-451.5,178" stroke="black" stroke-width="5"/>
<path d="M3840,3799 l60,0 l0,60 l-60,0 z" fill="green"/>
<path d="M3870,3829 l-410.5,-183" stroke="black" stroke-width="5"/>
<path d="M5662,5744 l60,0 l0,60 l-60,0 z" fill="green"/>
<path d="M5692,5774 l-1629.5,-2.5" stroke="black" stroke-width="5"/>
<path d="M9135,6876 l60,0 l0,60 l-60,0 z" fill="green"/>
<path d="M9165,6906 l215,-411.5" stroke="black" stroke-width="5"/>
<path d="M6260,6338 l60,0 l0,60 l-60,0 z" fill="green"/>
<path d="M6290,6368 l-370.5,-78.5" stroke="black" stroke-width="5"/>
<path d="M1113,6177 l60,0 l0,60 l-60,0 z" fill="green"/>
<path d="M1143,6207 l-349.5,-67.5" stroke="black" stroke-width="5"/>
<path d="M692,7266 l60,0 l0,60 l-60,0 z" fill="green"/>
<path d="M722,7296 l-156.5,73.5" stroke="black" stroke-width="5"/>
<path d="M3670,4979 l60,0 l0,60 l-60,0 z" fill="green"/>
<path d="M3700,5009 l-555.5,111" stroke="black" stroke-width="5"/>
<path d="M8375,6490 l60,0 l0,60 l-60,0 z" fill="green"/>
<path d="M8405,6520 l305,-270.5" stroke="black" stroke-width="5"/>
<path d="M7425,4131 l60,0 l0,60 l-60,0 z" fill="green"/>
<path d="M7455,4161 l-3,-663.5" stroke="black" stroke-width="5"/>
<path d="M4778,3498 l60,0 l0,60 l-60,0 z" fill="green"/>
<path d="M4808,3528 l22,-287.5" stroke="black" stroke-width="5"/>
<path d="M870,2446 l60,0 l0,60 l-60,0 z" fill="green"/>
<path d="M900,2476 l287.5,-113" stroke="black" stroke-width="5"/>
<path d="M5934,8564 l60,0 l0,60 l-60,0 z" fill="green"/>
<path d="M5964,8594 l-238.5,360.5" stroke="black" stroke-width="5"/>
<path d="M853,2314 l60,0 l0,60 l-60,0 z" fill="green"/>
<path d="M883,2344 l-294.5,19" stroke="black" stroke-width="5"/>
<path d="M2515,9252 l60,0 l0,60 l-60,0 z" fill="green"/>
<path d="M2545,9282 l-27.5,-579" stroke="black" stroke-width="5"/>
<path d="M3097,4360 l60,0 l0,60 l-60,0 z" fill="green"/>
<path d="M3127,4390 l-496.5,-113.5" stroke="black" stroke-width="5"/>
<path d="M8390,4274 l60,0 l0,60 l-60,0 z" fill="green"/>
<path d="M8420,4304 l36.5,-1060" stroke="black" stroke-width="5"/>
<path d="M8317,5939 l60,0 l0,60 l-60,0 z" fill="green"/>
<path d="M8347,5969 l-654.5,546" stroke="black" stroke-width="5"/>
<path d="M6503,5904 l60,0 l0,60 l-60,0 z" fill="green"/>
<path d="M6533,5934 l-713.5,17.5" stroke="black" stroke-width="5"/>
<path d="M6812,8244 l60,0 l0,60 l-60,0 z" fill="green"/>
<path d="M6842,8274 l92.5,-516.5" stroke="black" stroke-width="5"/>
<path d="M1261,8500 l60,0 l0,60 l-60,0 z" fill="green"/>
<path d="M1291,8530 l37,-535" stroke="black" stroke-width="5"/>
<path d="M877,2059 l60,0 l0,60 l-60,0 z" fill="green"/>
<path d="M907,2089 l-364.5,-145.5" stroke="black" stroke-width="5"/>
<path d="M1055,858 l60,0 l0,60 l-60,0 z" fill="green"/>
<path d="M1085,888 l203,488.5" stroke="black" stroke-width="5"/>
<path d="M5142,591 l60,0 l0,60 l-60,0 z" fill="green"/>
<path d="M5172,621 l121,-276" stroke="black" stroke-width="5"/>
<path d="M3679,533 l60,0 l0,60 l-60,0 z" fill="green"/>
<path d="M3709,563 l-51,-155" stroke="black" stroke-width="5"/>
<path d="M7609,1735 l60,0 l0,60 l-60,0 z" fill="green"/>
<path d="M7639,1765 l74.5,1289" stroke="black" stroke-width="5"/>
<path d="M2969,4519 l60,0 l0,60 l-60,0 z" fill="green"/>
<path d="M2999,4549 l-99,230" stroke="black" stroke-width="5"/>
<path d="M8622,5945 l60,0 l0,60 l-60,0 z" fill="green"/>
<path d="M8652,5975 l112.5,-305" stroke="black" stroke-width="5"/>
<path d="M3803,9620 l60,0 l0,60 l-60,0 z" fill="green"/>
<path d="M3833,9650 l54.5,-11" stroke="black" stroke-width="5"/>
<path d="M4706,316 l60,0 l0,60 l-60,0 z" fill="green"/>
<path d="M4736,346 l-221.5,357.5" stroke="black" stroke-width="5"/>
<path d="M6324,1459 l60,0 l0,60 l-60,0 z" fill="green"/>
<path d="M6354,1489 l86,1032" stroke="black" stroke-width="5"/>
<path d="M4168,1377 l60,0 l0,60 l-60,0 z" fill="green"/>
<path d="M4198,1407 l-723,31" stroke="black" stroke-width="5"/>
<path d="M4192,7104 l60,0 l0,60 l-60,0 z" fill="green"/>
<path d="M4222,7134 l-48,-554" stroke="black" stroke-width="5"/>
<path d="M504,774 l60,0 l0,60 l-60,0 z" fill="green"/>
<path d="M534,804 l53.5,426" stroke="black" stroke-width="5"/>
<path d="M6919,470 l60,0 l0,60 l-60,0 z" fill="green"/>
<path d="M6949,500 l65,-93" stroke="black" stroke-width="5"/>
<path d="M860,1043 l60,0 l0,60 l-60,0 z" fill="green"/>
<path d="M890,1073 l41.5,157" stroke="black" stroke-width="5"/>
<path d="M2352,944 l60,0 l0,60 l-60,0 z" fill="green"/>
<path d="M2382,974 l-343.5,137.5" stroke="black" stroke-width="5"/>
<path d="M773,9436 l60,0 l0,60 l-60,0 z" fill="green"/>
<path d="M803,9466 l-36.5,10.5" stroke="black" stroke-width="5"/>
<path d="M9595,7747 l60,0 l0,60 l-60,0 z" fill="green"/>
<path d="M9625,7777 l-801.5,224" stroke="black" stroke-width="5"/>
<path d="M4244,6177 l60,0 l0,60 l-60,0 z" fill="green"/>
<path d="M4274,6207 l344,369.5" stroke="black" stroke-width="5"/>
<path d="M4932,5746 l60,0 l0,60 l-60,0 z" fill="green"/>
<path d="M4962,5776 l-599,102" stroke="black" stroke-width="5"/>
<path d="M4879,5036 l60,0 l0,60 l-60,0 z" fill="green"/>
<path d="M4909,5066 l36.5,153" stroke="black" stroke-width="5"/>
<path d="M5063,8244 l60,0 l0,60 l-60,0 z" fill="green"/>
<path d="M5093,8274 l127,230" stroke="black" stroke-width="5"/>
<path d="M262,2173 l60,0 l0,60 l-60,0 z" fill="green"/>
<path d="M292,2203 l-128,221" stroke="black" stroke-width="5"/>
<path d="M8988,1957 l60,0 l0,60 l-60,0 z" fill="green"/>
<path d="M9018,1987 l11.5,1136.5" stroke="black" stroke-width="5"/>
<path d="M1461,765 l60,0 l0,60 l-60,0 z" fill="green"/>
<path d="M1491,795 l505.5,-387" stroke="black" stroke-width="5"/>
<path d="M9072,4389 l60,0 l0,60 l-60,0 z" fill="green"/>
<path d="M9102,4419 l391,-569.5" stroke="black" stroke-width="5"/>
<path d="M7374,2828 l60,0 l0,60 l-60,0 z" fill="green"/>
<path d="M7404,2858 l-103,228.5" stroke="black" stroke-width="5"/>
<path d="M1249,4447 l60,0 l0,60 l-60,0 z" fill="green"/>
<path d="M1279,4477 l21,-525" stroke="black" stroke-width="5"/>
<path d="M2233,3767 l60,0 l0,60 l-60,0 z" fill="green"/>
<path d="M2263,3797 l36.5,-137" stroke="black" stroke-width="5"/>
<path d="M4322,4718 l60,0 l0,60 l-60,0 z" fill="green"/>
<path d="M4352,4748 l96,-742.5" stroke="black" stroke-width="5"/>
<path d="M3729,1345 l60,0 l0,60 l-60,0 z" fill="green"/>
<path d="M3759,1375 l65,-263.5" stroke="black" stroke-width="5"/>
<path d="M2060,2140 l60,0 l0,60 l-60,0 z" fill="green"/>
<path d="M2090,2170 l-206.5,-373.5" stroke="black" stroke-width="5"/>
<path d="M4924,8810 l60,0 l0,60 l-60,0 z" fill="green"/>
<path d="M4954,8840 l-533.5,215" stroke="black" stroke-width="5"/>
<path d="M1293,6384 l60,0 l0,60 l-60,0 z" fill="green"/>
<path d="M1323,6414 l-186.5,58.5" stroke="black" stroke-width="5"/>
<path d="M9728,7703 l60,0 l0,60 l-60,0 z" fill="green"/>
<path d="M9758,7733 l29.5,-475.5" stroke="black" stroke-width="5"/>
<path d="M9791,8473 l60,0 l0,60 l-60,0 z" fill="green"/>
<path d="M9821,8503 l-1080,301.5" stroke="black" stroke-width="5"/>
<path d="M9168,38 l60,0 l0,60 l-60,0 z" fill="green"/>
<path d="M9198,68 l-1187.5,93.5" stroke="black" stroke-width="5"/>
<path d="M1759,9552 l60,0 l0,60 l-60,0 z" fill="green"/>
<path d="M1789,9582 l-372.5,-111" stroke="black" stroke-width="5"/>
<path d="M7717,4313 l60,0 l0,60 l-60,0 z" fill="green"/>
<path d="M7747,4343 l-207.5,360.5" stroke="black" stroke-width="5"/>
<path d="M9962,1587 l60,0 l0,60 l-60,0 z" fill="green"/>
<path d="M9992,1617 l-35,2500" stroke="black" stroke-width="5"/>
<path d="M6001,1616 l60,0 l0,60 l-60,0 z" fill="green"/>
<path d="M6031,1646 l50,91" stroke="black" stroke-width="5"/>
<path d="M7928,2117 l60,0 l0,60 l-60,0 z" fill="green"/>
<path d="M7958,2147 l145.5,1017" stroke="black" stroke-width="5"/>
<path d="M9127,4897 l60,0 l0,60 l-60,0 z" fill="green"/>
<path d="M9157,4927 l258,-140.5" stroke="black" stroke-width="5"/>
<path d="M705,487 l60,0 l0,60 l-60,0 z" fill="green"/>
<path d="M735,517 l-155,-185.5" stroke="black" stroke-width="5"/>
<path d="M9849,5610 l60,0 l0,60 l-60,0 z" fill="green"/>
<path d="M9879,5640 l-386,-300" stroke="black" stroke-width="5"/>
<text font-size="118.67816581938534" text-anchor="middle" x="3381" y="5541.037358036785">
0
</text>
<text font-size="118.67816581938534" text-anchor="middle" x="8105.5" y="5317.537358036785">
1
</text>
<text font-size="118.67816581938534" text-anchor="middle" x="4028" y="2047.5373580367848">
2
</text>
<text font-size="118.67816581938534" text-anchor="middle" x="2722.5" y="6591.537358036785">
3
</text>
<text font-size="118.67816581938534" text-anchor="middle" x="6145.5" y="7698.537358036785">
4
</text>
<text font-size="118.67816581938534" text-anchor="middle" x="204" y="7338.537358036785">
5
</text>
<text font-size="118.67816581938534" text-anchor="middle" x="7473" y="8080.037358036785">
6
</text>
<text font-size="118.67816581938534" text-anchor="middle" x="3274.5" y="9786.037358036785">
7
</text>
<text font-size="118.67816581938534" text-anchor="middle" x="3368" y="4819.537358036785">
8
</text>
<text font-size="118.67816581938534" text-anchor="middle" x="6211.5" y="2979.037358036785">
9
</text>
<text font-size="118.67816581938534" text-anchor="middle" x="3875.5" y="9942.037358036785">
10
</text>
<text font-size="118.67816581938534" text-anchor="middle" x="520" y="3993.537358036785">
11
</text>
<text font-size="118.67816581938534" text-anchor="middle" x="2809" y="9524.537358036785">
12
</text>
<text font-size="118.67816581938534" text-anchor="middle" x="1947.5" y="3213.537358036785">
13
</text>
<text font-size="118.67816581938534" text-anchor="middle" x="5988" y="197.03735803678487">
14
</text>
<text font-size="118.67816581938534" text-anchor="middle" x="1660.5" y="6352.537358036785">
15
</text>
<text font-size="118.67816581938534" text-anchor="middle" x="2895" y="7485.037358036785">
16
</text>
<text font-size="118.67816581938534" text-anchor="middle" x="5293" y="1087.0373580367848">
17
</text>
<text font-size="118.67816581938534" text-anchor="middle" x="3814.5" y="7043.037358036785">
18
</text>
<text font-size="118.67816581938534" text-anchor="middle" x="3937.5" y="4659.037358036785">
19
</text>
<text font-size="118.67816581938534" text-anchor="middle" x="9794.5" y="6046.537358036785">
20
</text>
<text font-size="118.67816581938534" text-anchor="middle" x="3860.5" y="8359.037358036785">
21
</text>
<text font-size="118.67816581938534" text-anchor="middle" x="6701" y="1051.5373580367848">
22
</text>
<text font-size="118.67816581938534" text-anchor="middle" x="2156.5" y="9334.537358036785">
23
</text>
<text font-size="118.67816581938534" text-anchor="middle" x="6099.5" y="9368.537358036785">
24
</text>
<text font-size="118.67816581938534" text-anchor="middle" x="1528.5" y="1541.0373580367848">
25
</text>
<text font-size="118.67816581938534" text-anchor="middle" x="513.5" y="4851.037358036785">
26
</text>
<text font-size="118.67816581938534" text-anchor="middle" x="1127" y="419.0373580367849">
27
</text>
<text font-size="118.67816581938534" text-anchor="middle" x="4282" y="3176.037358036785">
28
</text>
<text font-size="118.67816581938534" text-anchor="middle" x="2125" y="7263.037358036785">
29
</text>
<text font-size="118.67816581938534" text-anchor="middle" x="198.5" y="940.0373580367849">
30
</text>
<text font-size="118.67816581938534" text-anchor="middle" x="947.5" y="2847.037358036785">
31
</text>
<text font-size="118.67816581938534" text-anchor="middle" x="1219" y="8830.537358036785">
32
</text>
<text font-size="118.67816581938534" text-anchor="middle" x="7843.5" y="690.0373580367849">
33
</text>
<text font-size="118.67816581938534" text-anchor="middle" x="8831.5" y="7611.037358036785">
34
</text>
<text font-size="118.67816581938534" text-anchor="middle" x="7327" y="75.53735803678487">
35
</text>
<text font-size="118.67816581938534" text-anchor="middle" x="3800.5" y="7938.537358036785">
36
</text>
<text font-size="118.67816581938534" text-anchor="middle" x="791" y="5552.037358036785">
37
</text>
<text font-size="118.67816581938534" text-anchor="middle" x="2312" y="2774.037358036785">
38
</text>
<text font-size="118.67816581938534" text-anchor="middle" x="8397" y="1636.0373580367848">
39
</text>
<text font-size="118.67816581938534" text-anchor="middle" x="8928.5" y="2800.037358036785">
40
</text>
<text font-size="118.67816581938534" text-anchor="middle" x="8412" y="4897.037358036785">
41
</text>
<text font-size="118.67816581938534" text-anchor="middle" x="8670" y="3194.037358036785">
42
</text>
<text font-size="118.67816581938534" text-anchor="middle" x="5554" y="4968.037358036785">
43
</text>
<text font-size="118.67816581938534" text-anchor="middle" x="8146" y="9660.537358036785">
44
</text>
<text font-size="118.67816581938534" text-anchor="middle" x="6579" y="7698.537358036785">
45
</text>
<text font-size="118.67816581938534" text-anchor="middle" x="4028" y="1689.0373580367848">
46
</text>
<text font-size="118.67816581938534" text-anchor="middle" x="5763.5" y="3884.037358036785">
47
</text>
<text font-size="118.67816581938534" text-anchor="middle" x="7093" y="1174.5373580367848">
48
</text>
<text font-size="118.67816581938534" text-anchor="middle" x="4847" y="5561.037358036785">
49
</text>
<text font-size="118.67816581938534" text-anchor="middle" x="4618" y="8038.537358036785">
50
</text>
<text font-size="118.67816581938534" text-anchor="middle" x="8710" y="6929.037358036785">
51
</text>
<text font-size="118.67816581938534" text-anchor="middle" x="7776.5" y="7661.537358036785">
52
</text>
<text font-size="118.67816581938534" text-anchor="middle" x="204" y="9827.537358036785">
53
</text>
<text font-size="118.67816581938534" text-anchor="middle" x="1881" y="5200.037358036785">
54
</text>
<text font-size="118.67816581938534" text-anchor="middle" x="3928.5" y="9912.037358036785">
55
</text>
<text font-size="118.67816581938534" text-anchor="middle" x="5743" y="2560.537358036785">
56
</text>
<text font-size="118.67816581938534" text-anchor="middle" x="2939.5" y="1153.0373580367848">
57
</text>
<text font-size="118.67816581938534" text-anchor="middle" x="6081" y="675.0373580367849">
58
</text>
<text font-size="118.67816581938534" text-anchor="middle" x="6880" y="3457.037358036785">
59
</text>
<text font-size="118.67816581938534" text-anchor="middle" x="3668.5" y="2365.537358036785">
60
</text>
<text font-size="118.67816581938534" text-anchor="middle" x="2896.5" y="4026.537358036785">
61
</text>
<text font-size="118.67816581938534" text-anchor="middle" x="8585" y="7349.537358036785">
62
</text>
<text font-size="118.67816581938534" text-anchor="middle" x="2764.5" y="449.5373580367849">
63
</text>
<text font-size="118.67816581938534" text-anchor="middle" x="9493" y="2097.537358036785">
64
</text>
<text font-size="118.67816581938534" text-anchor="middle" x="9126.5" y="690.0373580367849">
65
</text>
<text font-size="118.67816581938534" text-anchor="middle" x="7347.5" y="2250.037358036785">
66
</text>
<text font-size="118.67816581938534" text-anchor="middle" x="4060" y="3320.537358036785">
67
</text>
<text font-size="118.67816581938534" text-anchor="middle" x="3055.5" y="8060.037358036785">
68
</text>
<text font-size="118.67816581938534" text-anchor="middle" x="8415" y="5689.537358036785">
69
</text>
<text font-size="118.67816581938534" text-anchor="middle" x="7638" y="1445.0373580367848">
70
</text>
<text font-size="118.67816581938534" text-anchor="middle" x="5682" y="7461.537358036785">
71
</text>
<text font-size="118.67816581938534" text-anchor="middle" x="2170.5" y="9750.537358036785">
72
</text>
<text font-size="118.67816581938534" text-anchor="middle" x="3036" y="2988.537358036785">
73
</text>
<text font-size="118.67816581938534" text-anchor="middle" x="5220" y="7310.037358036785">
74
</text>
<text font-size="118.67816581938534" text-anchor="middle" x="4263" y="4748.537358036785">
75
</text>
<text font-size="118.67816581938534" text-anchor="middle" x="5026.5" y="4379.537358036785">
76
</text>
<text font-size="118.67816581938534" text-anchor="middle" x="3459.5" y="3687.537358036785">
77
</text>
<text font-size="118.67816581938534" text-anchor="middle" x="4062.5" y="5813.037358036785">
78
</text>
<text font-size="118.67816581938534" text-anchor="middle" x="9380" y="6536.037358036785">
79
</text>
<text font-size="118.67816581938534" text-anchor="middle" x="5919.5" y="6331.037358036785">
80
</text>
<text font-size="118.67816581938534" text-anchor="middle" x="793.5" y="6181.037358036785">
81
</text>
<text font-size="118.67816581938534" text-anchor="middle" x="565.5" y="7411.037358036785">
82
</text>
<text font-size="118.67816581938534" text-anchor="middle" x="3144.5" y="5161.537358036785">
83
</text>
<text font-size="118.67816581938534" text-anchor="middle" x="8710" y="6291.037358036785">
84
</text>
<text font-size="118.67816581938534" text-anchor="middle" x="7452" y="3539.037358036785">
85
</text>
<text font-size="118.67816581938534" text-anchor="middle" x="4830" y="3282.037358036785">
86
</text>
<text font-size="118.67816581938534" text-anchor="middle" x="1187.5" y="2404.537358036785">
87
</text>
<text font-size="118.67816581938534" text-anchor="middle" x="5725.5" y="8996.037358036785">
88
</text>
<text font-size="118.67816581938534" text-anchor="middle" x="588.5" y="2404.537358036785">
89
</text>
<text font-size="118.67816581938534" text-anchor="middle" x="2517.5" y="8744.537358036785">
90
</text>
<text font-size="118.67816581938534" text-anchor="middle" x="2630.5" y="4318.037358036785">
91
</text>
<text font-size="118.67816581938534" text-anchor="middle" x="8456.5" y="3285.537358036785">
92
</text>
<text font-size="118.67816581938534" text-anchor="middle" x="7692.5" y="6556.537358036785">
93
</text>
<text font-size="118.67816581938534" text-anchor="middle" x="5819.5" y="5993.037358036785">
94
</text>
<text font-size="118.67816581938534" text-anchor="middle" x="6934.5" y="7799.037358036785">
95
</text>
<text font-size="118.67816581938534" text-anchor="middle" x="1328" y="8036.537358036785">
96
</text>
<text font-size="118.67816581938534" text-anchor="middle" x="542.5" y="1985.0373580367848">
97
</text>
<text font-size="118.67816581938534" text-anchor="middle" x="1288" y="1418.0373580367848">
98
</text>
<text font-size="118.67816581938534" text-anchor="middle" x="5293" y="386.5373580367849">
99
</text>
<text font-size="118.67816581938534" text-anchor="middle" x="3658" y="449.5373580367849">
100
</text>
<text font-size="118.67816581938534" text-anchor="middle" x="7713.5" y="3095.537358036785">
101
</text>
<text font-size="118.67816581938534" text-anchor="middle" x="2900" y="4820.537358036785">
102
</text>
<text font-size="118.67816581938534" text-anchor="middle" x="8764.5" y="5711.537358036785">
103
</text>
<text font-size="118.67816581938534" text-anchor="middle" x="3887.5" y="9680.537358036785">
104
</text>
<text font-size="118.67816581938534" text-anchor="middle" x="4514.5" y="745.0373580367849">
105
</text>
<text font-size="118.67816581938534" text-anchor="middle" x="6440" y="2562.537358036785">
106
</text>
<text font-size="118.67816581938534" text-anchor="middle" x="3475" y="1479.5373580367848">
107
</text>
<text font-size="118.67816581938534" text-anchor="middle" x="4174" y="6621.537358036785">
108
</text>
<text font-size="118.67816581938534" text-anchor="middle" x="587.5" y="1271.5373580367848">
109
</text>
<text font-size="118.67816581938534" text-anchor="middle" x="7014" y="448.5373580367849">
110
</text>
<text font-size="118.67816581938534" text-anchor="middle" x="931.5" y="1271.5373580367848">
111
</text>
<text font-size="118.67816581938534" text-anchor="middle" x="2038.5" y="1153.0373580367848">
112
</text>
<text font-size="118.67816581938534" text-anchor="middle" x="766.5" y="9518.037358036785">
113
</text>
<text font-size="118.67816581938534" text-anchor="middle" x="8823.5" y="8042.537358036785">
114
</text>
<text font-size="118.67816581938534" text-anchor="middle" x="4618" y="6618.037358036785">
115
</text>
<text font-size="118.67816581938534" text-anchor="middle" x="4363" y="5919.537358036785">
116
</text>
<text font-size="118.67816581938534" text-anchor="middle" x="4945.5" y="5260.537358036785">
117
</text>
<text font-size="118.67816581938534" text-anchor="middle" x="5220" y="8545.537358036785">
118
</text>
<text font-size="118.67816581938534" text-anchor="middle" x="164" y="2465.537358036785">
119
</text>
<text font-size="118.67816581938534" text-anchor="middle" x="9029.5" y="3165.037358036785">
120
</text>
<text font-size="118.67816581938534" text-anchor="middle" x="1996.5" y="449.5373580367849">
121
</text>
<text font-size="118.67816581938534" text-anchor="middle" x="9493" y="3891.037358036785">
122
</text>
<text font-size="118.67816581938534" text-anchor="middle" x="7301" y="3128.037358036785">
123
</text>
<text font-size="118.67816581938534" text-anchor="middle" x="1300" y="3993.537358036785">
124
</text>
<text font-size="118.67816581938534" text-anchor="middle" x="2299.5" y="3701.537358036785">
125
</text>
<text font-size="118.67816581938534" text-anchor="middle" x="4448" y="4047.037358036785">
126
</text>
<text font-size="118.67816581938534" text-anchor="middle" x="3824" y="1153.0373580367848">
127
</text>
<text font-size="118.67816581938534" text-anchor="middle" x="1883.5" y="1838.0373580367848">
128
</text>
<text font-size="118.67816581938534" text-anchor="middle" x="4420.5" y="9096.537358036785">
129
</text>
<text font-size="118.67816581938534" text-anchor="middle" x="1136.5" y="6514.037358036785">
130
</text>
<text font-size="118.67816581938534" text-anchor="middle" x="9787.5" y="7299.037358036785">
131
</text>
<text font-size="118.67816581938534" text-anchor="middle" x="8741" y="8846.037358036785">
132
</text>
<text font-size="118.67816581938534" text-anchor="middle" x="8010.5" y="203.03735803678487">
133
</text>
<text font-size="118.67816581938534" text-anchor="middle" x="1416.5" y="9512.537358036785">
134
</text>
<text font-size="118.67816581938534" text-anchor="middle" x="7539.5" y="4745.037358036785">
135
</text>
<text font-size="118.67816581938534" text-anchor="middle" x="9957" y="4158.537358036785">
136
</text>
<text font-size="118.67816581938534" text-anchor="middle" x="6081" y="1778.5373580367848">
137
</text>
<text font-size="118.67816581938534" text-anchor="middle" x="8103.5" y="3205.537358036785">
138
</text>
<text font-size="118.67816581938534" text-anchor="middle" x="9415" y="4828.037358036785">
139
</text>
<text font-size="118.67816581938534" text-anchor="middle" x="580" y="373.0373580367849">
140
</text>
<text font-size="118.67816581938534" text-anchor="middle" x="9493" y="5381.537358036785">
141
</text>
</svg>